<svg width="24" height="24" viewBox="0 0 24 24" fill="none" xmlns="http://www.w3.org/2000/svg">
<path fill-rule="evenodd" clip-rule="evenodd" d="M10.5002 4.5C9.67182 4.5 9.00024 5.17157 9.00024 6C9.00024 6.82843 9.67182 7.5 10.5002 7.5C11.3287 7.5 12.0002 6.82843 12.0002 6C12.0002 5.17157 11.3287 4.5 10.5002 4.5ZM7.00024 6C7.00024 4.067 8.56725 2.5 10.5002 2.5C12.0858 2.5 13.425 3.55426 13.8553 5H21.0002C21.5525 5 22.0002 5.44772 22.0002 6C22.0002 6.55228 21.5525 7 21.0002 7H13.8553C13.425 8.44574 12.0858 9.5 10.5002 9.5C8.56725 9.5 7.00024 7.933 7.00024 6ZM2.00024 6C2.00024 5.44772 2.44796 5 3.00024 5H4.00024C4.55253 5 5.00024 5.44772 5.00024 6C5.00024 6.55228 4.55253 7 4.00024 7H3.00024C2.44796 7 2.00024 6.55228 2.00024 6ZM16.5002 10.5C15.6718 10.5 15.0002 11.1716 15.0002 12C15.0002 12.8284 15.6718 13.5 16.5002 13.5C17.3287 13.5 18.0002 12.8284 18.0002 12C18.0002 11.1716 17.3287 10.5 16.5002 10.5ZM13.0002 12C13.0002 10.067 14.5672 8.5 16.5002 8.5C18.0894 8.5 19.4312 9.55912 19.8583 11.01C19.9046 11.0034 19.952 11 20.0002 11H21.0002C21.5525 11 22.0002 11.4477 22.0002 12C22.0002 12.5523 21.5525 13 21.0002 13H20.0002C19.952 13 19.9046 12.9966 19.8583 12.99C19.4312 14.4409 18.0894 15.5 16.5002 15.5C14.5672 15.5 13.0002 13.933 13.0002 12ZM2.00024 12C2.00024 11.4477 2.44796 11 3.00024 11H10.0002C10.5525 11 11.0002 11.4477 11.0002 12C11.0002 12.5523 10.5525 13 10.0002 13H3.00024C2.44796 13 2.00024 12.5523 2.00024 12ZM7.50024 16.5C6.67182 16.5 6.00024 17.1716 6.00024 18C6.00024 18.8284 6.67182 19.5 7.50024 19.5C8.32867 19.5 9.00024 18.8284 9.00024 18C9.00024 17.1716 8.32867 16.5 7.50024 16.5ZM4.14518 17C4.57546 15.5543 5.91473 14.5 7.50024 14.5C9.43324 14.5 11.0002 16.067 11.0002 18C11.0002 19.933 9.43324 21.5 7.50024 21.5C5.91473 21.5 4.57546 20.4457 4.14518 19H3.00024C2.44796 19 2.00024 18.5523 2.00024 18C2.00024 17.4477 2.44796 17 3.00024 17H4.14518ZM13.0002 18C13.0002 17.4477 13.448 17 14.0002 17H21.0002C21.5525 17 22.0002 17.4477 22.0002 18C22.0002 18.5523 21.5525 19 21.0002 19H14.0002C13.448 19 13.0002 18.5523 13.0002 18Z" fill="white"/>
</svg>
