<svg width="55" height="55" viewBox="0 0 55 55" fill="none" xmlns="http://www.w3.org/2000/svg">
<rect x="0.337891" y="0.5" width="54" height="54" rx="27" fill="black"/>
<rect width="24" height="24" transform="translate(15.3379 15.5)" fill="black"/>
<path d="M36.6187 33.924C36.2709 34.7275 35.8591 35.4672 35.3821 36.1472C34.7319 37.0743 34.1995 37.716 33.7892 38.0724C33.1532 38.6573 32.4717 38.9568 31.742 38.9739C31.2181 38.9739 30.5863 38.8248 29.8509 38.5224C29.1131 38.2214 28.4351 38.0724 27.8151 38.0724C27.1648 38.0724 26.4675 38.2214 25.7216 38.5224C24.9745 38.8248 24.3727 38.9824 23.9126 38.998C23.2128 39.0278 22.5153 38.7197 21.8191 38.0724C21.3747 37.6848 20.8189 37.0204 20.153 36.0791C19.4386 35.0739 18.8513 33.9084 18.3912 32.5795C17.8984 31.1442 17.6514 29.7543 17.6514 28.4087C17.6514 26.8673 17.9844 25.5379 18.6516 24.4238C19.1759 23.529 19.8734 22.8231 20.7463 22.3049C21.6193 21.7867 22.5626 21.5227 23.5784 21.5058C24.1342 21.5058 24.8631 21.6777 25.7688 22.0156C26.6721 22.3546 27.252 22.5265 27.5063 22.5265C27.6964 22.5265 28.3406 22.3255 29.4328 21.9247C30.4657 21.5531 31.3374 21.3992 32.0515 21.4598C33.9865 21.6159 35.4403 22.3788 36.4072 23.753C34.6765 24.8016 33.8204 26.2703 33.8375 28.1544C33.8531 29.622 34.3855 30.8432 35.4318 31.8129C35.906 32.2629 36.4355 32.6107 37.0247 32.8578C36.897 33.2283 36.7621 33.5832 36.6187 33.924ZM32.1807 16.4601C32.1807 17.6104 31.7604 18.6844 30.9228 19.6785C29.912 20.8602 28.6893 21.5431 27.3635 21.4354C27.3466 21.2974 27.3368 21.1521 27.3368 20.9995C27.3368 19.8953 27.8175 18.7135 28.6712 17.7472C29.0974 17.258 29.6394 16.8512 30.2967 16.5267C30.9526 16.2071 31.573 16.0303 32.1565 16C32.1736 16.1538 32.1807 16.3076 32.1807 16.4601V16.4601Z" fill="white"/>
</svg>
