<svg width="25" height="25" viewBox="0 0 25 25" fill="none" xmlns="http://www.w3.org/2000/svg">
<path d="M10.0732 16.1865H5.07324V21.1865M14.0732 8.18652H19.0732V3.18652M4.65625 9.18993C5.21693 7.80218 6.15568 6.59956 7.36579 5.71875C8.5759 4.83794 10.0101 4.31404 11.503 4.20703C12.9959 4.10002 14.488 4.41393 15.8113 5.11314C17.1347 5.81235 18.2345 6.86906 18.9874 8.16265M19.4908 15.1836C18.9301 16.5713 17.9914 17.774 16.7812 18.6548C15.5711 19.5356 14.1384 20.0588 12.6455 20.1658C11.1526 20.2728 9.65931 19.959 8.33594 19.2598C7.01257 18.5606 5.91206 17.504 5.15918 16.2104" stroke="#ADADAD" stroke-width="2" stroke-linecap="round" stroke-linejoin="round"/>
</svg>
