<svg width="25" height="25" viewBox="0 0 25 25" fill="none" xmlns="http://www.w3.org/2000/svg">
<path d="M12.166 10.1768V20.3768M12.166 10.1768C12.166 8.4966 12.166 7.65687 12.493 7.01514C12.7806 6.45065 13.2392 5.99155 13.8037 5.70393C14.4454 5.37695 15.2857 5.37695 16.9658 5.37695H19.5658C20.1259 5.37695 20.4061 5.37695 20.62 5.48595C20.8082 5.58182 20.9608 5.73469 21.0566 5.92285C21.1656 6.13676 21.166 6.417 21.166 6.97705V15.7771C21.166 16.3371 21.1656 16.6167 21.0566 16.8307C20.9608 17.0188 20.8085 17.1722 20.6203 17.2681C20.4066 17.377 20.127 17.377 19.568 17.377H16.7354C15.7961 17.377 15.3257 17.377 14.8994 17.5064C14.522 17.621 14.1717 17.8087 13.867 18.0591C13.5228 18.3419 13.262 18.7327 12.7411 19.5142L12.166 20.3768M12.166 10.1768C12.166 8.4966 12.1658 7.65687 11.8389 7.01514C11.5512 6.45065 11.0923 5.99155 10.5278 5.70393C9.88606 5.37695 9.04578 5.37695 7.36562 5.37695H4.76562C4.20557 5.37695 3.92583 5.37695 3.71191 5.48595C3.52375 5.58182 3.37088 5.73469 3.27501 5.92285C3.16602 6.13676 3.16602 6.417 3.16602 6.97705V15.7771C3.16602 16.3371 3.16602 16.6167 3.27501 16.8307C3.37088 17.0188 3.52375 17.1722 3.71191 17.2681C3.92562 17.377 4.20503 17.377 4.76398 17.377H7.59674C8.53596 17.377 9.00544 17.377 9.4317 17.5064C9.80907 17.621 10.1611 17.8087 10.4658 18.0591C10.8086 18.3408 11.0677 18.7295 11.5845 19.5047L12.166 20.3768" stroke="#4FCFF5" stroke-width="2" stroke-linecap="round" stroke-linejoin="round"/>
</svg>
