<svg width="25" height="25" viewBox="0 0 25 25" fill="none" xmlns="http://www.w3.org/2000/svg">
<path d="M4.74609 8.81348H20.7461M4.74609 8.81348V17.6137C4.74609 18.7338 4.74609 19.2935 4.96408 19.7214C5.15583 20.0977 5.46157 20.404 5.83789 20.5957C6.2653 20.8135 6.82509 20.8135 7.943 20.8135H17.5492C18.6671 20.8135 19.2261 20.8135 19.6535 20.5957C20.0298 20.404 20.3366 20.0977 20.5283 19.7214C20.7461 19.294 20.7461 18.735 20.7461 17.6171V8.81348M4.74609 8.81348V8.01367C4.74609 6.89357 4.74609 6.3331 4.96408 5.90527C5.15583 5.52895 5.46157 5.22321 5.83789 5.03146C6.26571 4.81348 6.82618 4.81348 7.94629 4.81348H8.74609M20.7461 8.81348V8.01039C20.7461 6.89247 20.7461 6.33268 20.5283 5.90527C20.3366 5.52895 20.0298 5.22321 19.6535 5.03146C19.2257 4.81348 18.6664 4.81348 17.5463 4.81348H16.7461M8.74609 4.81348H16.7461M8.74609 4.81348V2.81348M16.7461 4.81348V2.81348M12.4961 16.8135C12.6342 16.8135 12.7461 16.7015 12.7461 16.5635V13.0635C12.7461 12.9254 12.6342 12.8135 12.4961 12.8135H8.99609C8.85802 12.8135 8.74609 12.9254 8.74609 13.0635V16.5635C8.74609 16.7015 8.85802 16.8135 8.99609 16.8135H12.4961Z" stroke="#313131" stroke-width="2" stroke-linecap="round" stroke-linejoin="round"/>
</svg>
