<svg width="25" height="25" viewBox="0 0 25 25" fill="none" xmlns="http://www.w3.org/2000/svg">
<path d="M8.39453 4.37695H7.59473C6.47462 4.37695 5.91415 4.37695 5.48633 4.59494C5.11 4.78669 4.80426 5.09243 4.61252 5.46875C4.39453 5.89657 4.39453 6.45704 4.39453 7.57715V8.37695M8.39453 4.37695H16.3945M8.39453 4.37695V2.37695M16.3945 4.37695H17.1947C18.3148 4.37695 18.8741 4.37695 19.3019 4.59494C19.6782 4.78669 19.985 5.09243 20.1768 5.46875C20.3945 5.89616 20.3945 6.45595 20.3945 7.57386V8.37695M16.3945 4.37695V2.37695M4.39453 8.37695V17.1771C4.39453 18.2973 4.39453 18.857 4.61252 19.2848C4.80426 19.6612 5.11 19.9674 5.48633 20.1592C5.91373 20.377 6.47353 20.377 7.59144 20.377H17.1976C18.3155 20.377 18.8745 20.377 19.3019 20.1592C19.6782 19.9674 19.985 19.6612 20.1768 19.2848C20.3945 18.8574 20.3945 18.2984 20.3945 17.1805V8.37695M4.39453 8.37695H20.3945M16.3945 16.377H16.3965L16.3965 16.379L16.3945 16.3789V16.377ZM12.3945 16.377H12.3965L12.3965 16.379L12.3945 16.3789V16.377ZM8.39453 16.377H8.39653L8.39648 16.379L8.39453 16.3789V16.377ZM16.3965 12.377V12.379L16.3945 12.3789V12.377H16.3965ZM12.3945 12.377H12.3965L12.3965 12.379L12.3945 12.3789V12.377ZM8.39453 12.377H8.39653L8.39648 12.379L8.39453 12.3789V12.377Z" stroke="#4FCFF5" stroke-width="2" stroke-linecap="round" stroke-linejoin="round"/>
</svg>
