<svg width="25" height="25" viewBox="0 0 25 25" fill="none" xmlns="http://www.w3.org/2000/svg">
<path fill-rule="evenodd" clip-rule="evenodd" d="M6.90777 3.18652H18.5849C19.112 3.18651 19.5666 3.18649 19.941 3.2171C20.3363 3.24942 20.7292 3.32077 21.1075 3.51351C21.6709 3.80057 22.1312 4.25877 22.4193 4.82433C22.612 5.20252 22.6833 5.59558 22.7156 5.99049C22.7461 6.36467 22.7461 6.81883 22.7461 7.34492V15.0286C22.7461 15.5547 22.7461 16.0087 22.7155 16.3827C22.6833 16.7776 22.612 17.1703 22.4193 17.5484C22.1318 18.1127 21.6727 18.5721 21.1081 18.8598C20.7299 19.0524 20.337 19.1237 19.9421 19.156C19.5679 19.1866 19.1138 19.1865 18.5877 19.1865H9.86817C9.4122 19.1865 9.32348 19.1912 9.24695 19.2069C9.15755 19.2253 9.07195 19.2553 8.99273 19.2958C8.9251 19.3303 8.85422 19.381 8.50558 19.66L8.48985 19.6723L8.48656 19.6748L6.93585 20.9154C6.5495 21.2245 6.20735 21.4982 5.91714 21.6901C5.63382 21.8774 5.23272 22.1055 4.74815 22.106C4.13896 22.1066 3.56292 21.8296 3.18301 21.3537C2.88075 20.975 2.80823 20.5195 2.7775 20.1813C2.74604 19.8349 2.74607 19.3969 2.7461 18.9022L2.7461 7.3482C2.74608 6.82103 2.74606 6.36617 2.77666 5.99151C2.80896 5.59614 2.88025 5.20277 3.07308 4.82433C3.3607 4.25985 3.81942 3.80113 4.3839 3.51351C4.76234 3.32068 5.15571 3.24939 5.55108 3.21709C5.92574 3.18649 6.3806 3.18651 6.90777 3.18652ZM5.71389 5.21045C5.44205 5.23266 5.34127 5.27036 5.29188 5.29552C5.10372 5.39139 4.95096 5.54415 4.85509 5.73231C4.82993 5.7817 4.79223 5.88247 4.77003 6.15432C4.74687 6.43778 4.7461 6.81018 4.7461 7.38672V18.8577C4.7461 19.4105 4.74709 19.7558 4.7693 20.0003C4.77086 20.0174 4.77246 20.0332 4.77409 20.0477C4.78645 20.0399 4.79979 20.0312 4.81414 20.0218C5.01904 19.8863 5.28937 19.6713 5.72101 19.326L7.24497 18.1068L7.26069 18.0945L7.26391 18.092C7.2794 18.0796 7.29477 18.0673 7.31006 18.0551C7.57465 17.843 7.81103 17.6536 8.08283 17.5148C8.32456 17.3913 8.5812 17.3019 8.84486 17.2478C9.14602 17.186 9.45104 17.1862 9.79768 17.1865C9.82098 17.1865 9.84448 17.1865 9.86817 17.1865H18.5492C19.1246 17.1865 19.4963 17.1857 19.7791 17.1626C20.0504 17.1405 20.1509 17.1028 20.2001 17.0777C20.3881 16.9819 20.5414 16.8287 20.6373 16.6404C20.6625 16.5911 20.7 16.4907 20.7222 16.2197C20.7453 15.937 20.7461 15.5656 20.7461 14.9901V7.38344C20.7461 6.80799 20.7453 6.43632 20.7222 6.15338C20.7 5.88207 20.6624 5.78153 20.6373 5.73231C20.542 5.54523 20.3887 5.39194 20.1995 5.29552C20.15 5.27027 20.0493 5.23263 19.778 5.21045C19.4949 5.1873 19.1229 5.18653 18.5463 5.18653H6.94629C6.36975 5.18653 5.99735 5.1873 5.71389 5.21045Z" fill="#ADADAD"/>
</svg>
