<svg width="25" height="25" viewBox="0 0 25 25" fill="none" xmlns="http://www.w3.org/2000/svg">
<path d="M10.041 9.79041C10.2118 9.26412 10.5247 8.79576 10.9453 8.43628C11.3659 8.0768 11.8783 7.84058 12.4248 7.75387C12.9713 7.66717 13.5308 7.73319 14.042 7.94482C14.5532 8.15645 14.996 8.50554 15.3213 8.95312C15.6466 9.40071 15.8414 9.92936 15.8849 10.481C15.9284 11.0326 15.8184 11.5856 15.5672 12.0786C15.3161 12.5716 14.9339 12.9853 14.4621 13.2744C13.9904 13.5635 13.4478 13.7166 12.8945 13.7166V14.717M12.8945 21.7168C7.92397 21.7168 3.89453 17.6874 3.89453 12.7168C3.89453 7.74623 7.92397 3.7168 12.8945 3.7168C17.8651 3.7168 21.8945 7.74623 21.8945 12.7168C21.8945 17.6874 17.8651 21.7168 12.8945 21.7168ZM12.9443 17.7168V17.8168L12.8447 17.817V17.7168H12.9443Z" stroke="#313131" stroke-width="2" stroke-linecap="round" stroke-linejoin="round"/>
</svg>
