<svg width="21" height="18" viewBox="0 0 21 18" fill="none" xmlns="http://www.w3.org/2000/svg">
<path fill-rule="evenodd" clip-rule="evenodd" d="M6.13867 2.8457C5.0341 2.8457 4.13867 3.74113 4.13867 4.8457C4.13867 5.43794 4.39482 5.96903 4.80559 6.33668C5.21711 6.705 5.25213 7.3372 4.88381 7.74872C4.51548 8.16025 3.88329 8.19527 3.47176 7.82695C2.65502 7.09595 2.13867 6.03047 2.13867 4.8457C2.13867 2.63656 3.92953 0.845703 6.13867 0.845703C7.16251 0.845703 8.09858 1.23167 8.80559 1.86446C9.21711 2.23279 9.25214 2.86498 8.88381 3.27651C8.51548 3.68804 7.88329 3.72306 7.47176 3.35473C7.11726 3.03744 6.65155 2.8457 6.13867 2.8457ZM11.4718 1.86446C12.1788 1.23167 13.1148 0.845703 14.1387 0.845703C16.3478 0.845703 18.1387 2.63656 18.1387 4.8457C18.1387 6.03047 17.6223 7.09595 16.8056 7.82695C16.3941 8.19527 15.7619 8.16025 15.3935 7.74872C15.0252 7.3372 15.0602 6.705 15.4718 6.33668C15.8825 5.96903 16.1387 5.43794 16.1387 4.8457C16.1387 3.74113 15.2432 2.8457 14.1387 2.8457C13.6258 2.8457 13.1601 3.03744 12.8056 3.35473C12.3941 3.72306 11.7619 3.68804 11.3935 3.27651C11.0252 2.86498 11.0602 2.23279 11.4718 1.86446ZM10.1387 5.8457C9.0341 5.8457 8.13867 6.74113 8.13867 7.84571C8.13867 8.95028 9.0341 9.84571 10.1387 9.84571C11.2432 9.84571 12.1387 8.95028 12.1387 7.84571C12.1387 6.74113 11.2432 5.8457 10.1387 5.8457ZM6.13867 7.84571C6.13867 5.63656 7.92953 3.8457 10.1387 3.8457C12.3478 3.8457 14.1387 5.63656 14.1387 7.84571C14.1387 10.0548 12.3478 11.8457 10.1387 11.8457C7.92953 11.8457 6.13867 10.0548 6.13867 7.84571ZM5.10599 10.8421C5.24604 11.3764 4.92649 11.923 4.39225 12.063C3.62478 12.2642 3.02927 12.5813 2.64513 12.9267C2.2637 13.2697 2.13867 13.5896 2.13867 13.8461C2.13867 14.3984 1.69096 14.8461 1.13867 14.8461C0.586387 14.8461 0.138672 14.3984 0.138672 13.8461C0.138672 12.8724 0.63069 12.0485 1.30779 11.4396C1.98217 10.8332 2.88666 10.3901 3.88509 10.1284C4.41932 9.98834 4.96594 10.3079 5.10599 10.8421ZM15.1714 10.8421C15.3114 10.3079 15.858 9.98834 16.3923 10.1284C17.3907 10.3901 18.2952 10.8332 18.9696 11.4396C19.6467 12.0485 20.1387 12.8724 20.1387 13.8461C20.1387 14.3984 19.691 14.8461 19.1387 14.8461C18.5864 14.8461 18.1387 14.3984 18.1387 13.8461C18.1387 13.5896 18.0136 13.2697 17.6322 12.9267C17.2481 12.5813 16.6526 12.2642 15.8851 12.063C15.3509 11.923 15.0313 11.3764 15.1714 10.8421ZM6.08864 13.8669C7.17359 13.2159 8.60788 12.8457 10.1387 12.8457C11.6695 12.8457 13.1038 13.2159 14.1887 13.8669C15.2537 14.5059 16.1387 15.528 16.1387 16.8457C16.1387 17.398 15.691 17.8457 15.1387 17.8457C14.5864 17.8457 14.1387 17.398 14.1387 16.8457C14.1387 16.5065 13.9043 16.0286 13.1597 15.5819C12.435 15.1471 11.3693 14.8457 10.1387 14.8457C8.90804 14.8457 7.84233 15.1471 7.11764 15.5819C6.37303 16.0286 6.13867 16.5065 6.13867 16.8457C6.13867 17.398 5.69096 17.8457 5.13867 17.8457C4.58639 17.8457 4.13867 17.398 4.13867 16.8457C4.13867 15.528 5.0236 14.5059 6.08864 13.8669Z" fill="#313131"/>
</svg>
