<svg width="32" height="33" viewBox="0 0 32 33" fill="none" xmlns="http://www.w3.org/2000/svg">
<rect x="0.5" y="0.686523" width="31" height="31" rx="15.5" stroke="#88D8F9" stroke-opacity="0.33"/>
<path fill-rule="evenodd" clip-rule="evenodd" d="M18.8705 9.23065C19.1918 9.12624 19.538 9.12624 19.8593 9.23065C20.0909 9.30588 20.2682 9.43338 20.4078 9.55187C20.5348 9.65974 20.6735 9.79839 20.8156 9.94053L22.2435 11.3684C22.3862 11.5112 22.5253 11.6502 22.6335 11.7776C22.7522 11.9175 22.8799 12.095 22.9552 12.3268C23.0596 12.6482 23.0596 12.9944 22.9552 13.3157C22.8799 13.5473 22.7523 13.7248 22.6337 13.8646C22.5256 13.9918 22.3867 14.1307 22.2442 14.2733L22.2188 14.2986L13.5305 22.9869C13.3805 23.1369 13.177 23.2212 12.9648 23.2212L9.76485 23.2212C9.55267 23.2212 9.34919 23.1369 9.19916 22.9869C9.04913 22.8368 8.96484 22.6334 8.96484 22.4212V19.2212C8.96484 19.009 9.04913 18.8055 9.19916 18.6555L15.5992 12.2555L17.898 9.95662L17.9135 9.9412C18.0558 9.79884 18.1945 9.66004 18.3217 9.55207C18.4614 9.4335 18.6388 9.30592 18.8705 9.23065ZM16.1648 13.9526L10.5648 19.5526V21.6212L12.6335 21.6212L18.2335 16.0212L16.1648 13.9526ZM19.3648 14.8898L21.1014 13.1532C21.2647 12.9899 21.3543 12.8994 21.4139 12.8291C21.4163 12.8263 21.4185 12.8237 21.4205 12.8212C21.4184 12.8186 21.4161 12.8159 21.4137 12.8131C21.3531 12.7417 21.2618 12.6495 21.094 12.4818L19.7022 11.0899C19.5351 10.9229 19.4434 10.832 19.3724 10.7717C19.3697 10.7695 19.3672 10.7674 19.3649 10.7654C19.3624 10.7674 19.3599 10.7696 19.3572 10.7719C19.286 10.8322 19.1941 10.9233 19.0268 11.0906L19.0229 11.0945L17.2962 12.8212L19.3648 14.8898Z" fill="#88D8F9" fill-opacity="0.33"/>
</svg>
