<svg width="25" height="25" viewBox="0 0 25 25" fill="none" xmlns="http://www.w3.org/2000/svg">
<path d="M16.166 17.377C17.8229 17.377 19.166 16.0338 19.166 14.377V12.3771M19.166 12.3771V8.97542C19.166 8.41646 19.166 8.13655 19.0571 7.92285C18.9613 7.73469 18.8079 7.58182 18.6197 7.48595C18.4058 7.37695 18.1262 7.37695 17.5661 7.37695H15.7661C15.2061 7.37695 14.9258 7.37695 14.7119 7.48595C14.5238 7.58182 14.3709 7.73469 14.275 7.92285C14.166 8.13676 14.166 8.417 14.166 8.97705V10.7771C14.166 11.3371 14.166 11.6167 14.275 11.8307C14.3709 12.0188 14.5238 12.1722 14.7119 12.2681C14.9256 12.377 15.2055 12.377 15.7645 12.377L19.166 12.3771ZM7.16602 17.377C8.82287 17.377 10.166 16.0338 10.166 14.377L10.166 12.3771M10.166 12.3771V8.97541C10.166 8.41646 10.166 8.13655 10.0571 7.92285C9.96126 7.73469 9.80787 7.58182 9.61971 7.48595C9.4058 7.37695 9.12617 7.37695 8.56611 7.37695H6.76611C6.20606 7.37695 5.92583 7.37695 5.71191 7.48595C5.52375 7.58182 5.37088 7.73469 5.27501 7.92285C5.16602 8.13676 5.16602 8.417 5.16602 8.97705V10.7771C5.16602 11.3371 5.16602 11.6167 5.27501 11.8307C5.37088 12.0188 5.52375 12.1722 5.71191 12.2681C5.92562 12.377 6.20551 12.377 6.76447 12.377L10.166 12.3771Z" stroke="#4FCFF5" stroke-width="2" stroke-linecap="round" stroke-linejoin="round"/>
</svg>
