<svg width="100" height="100" viewBox="0 0 100 100" fill="none" xmlns="http://www.w3.org/2000/svg">
<path d="M86.25 4C83.7578 4 81.2734 4.97656 79.375 6.875L77.75 8.5L91.5 22.25C91.4922 22.2578 93.125 20.625 93.125 20.625C96.9297 16.8203 96.9219 10.6719 93.125 6.875C91.2187 4.97656 88.7422 4 86.25 4ZM74.6875 12.0625C74.2344 12.125 73.8125 12.3516 73.5 12.6875L8.62499 77.625C8.36718 77.8594 8.17187 78.1641 8.06249 78.5L4.06249 93.5C3.8828 94.1875 4.08593 94.9141 4.58593 95.4141C5.08593 95.9141 5.81249 96.1172 6.49999 95.9375L21.5 91.9375C21.8359 91.8281 22.1406 91.6328 22.375 91.375L87.3125 26.5C88.1094 25.7266 88.1172 24.4531 87.3437 23.6562C86.5703 22.8594 85.2969 22.8516 84.5 23.625L19.9375 88.1875L11.8125 80.0625L76.375 15.5C76.9766 14.9219 77.1562 14.0234 76.8203 13.2578C76.4844 12.4922 75.7109 12.0156 74.875 12.0625C74.8125 12.0625 74.75 12.0625 74.6875 12.0625Z" fill="#70D4FC"/>
</svg>
