<svg width="55" height="55" viewBox="0 0 55 55" fill="none" xmlns="http://www.w3.org/2000/svg">
<rect x="0.337891" y="0.5" width="54" height="54" rx="27" fill="#1877F2"/>
<g clip-path="url(#clip0_381_322)">
<rect width="24" height="24" transform="translate(15.3379 15.5)" fill="#1877F2"/>
<path d="M38.8379 27.5699C38.8379 21.2186 33.6892 16.0699 27.3379 16.0699C20.9866 16.0699 15.8379 21.2186 15.8379 27.5699C15.8379 33.3099 20.0433 38.0674 25.541 38.9302V30.8941H22.6211V27.5699H25.541V25.0363C25.541 22.1541 27.2579 20.5621 29.8847 20.5621C31.1429 20.5621 32.459 20.7867 32.459 20.7867V23.6168H31.0089C29.5803 23.6168 29.1348 24.5032 29.1348 25.4127V27.5699H32.3242L31.8144 30.8941H29.1348V38.9302C34.6325 38.0674 38.8379 33.3099 38.8379 27.5699Z" fill="white"/>
</g>
<defs>
<clipPath id="clip0_381_322">
<rect width="24" height="24" fill="white" transform="translate(15.3379 15.5)"/>
</clipPath>
</defs>
</svg>
