<svg width="55" height="55" viewBox="0 0 55 55" fill="none" xmlns="http://www.w3.org/2000/svg">
<rect x="0.587891" y="0.75" width="53.5" height="53.5" rx="26.75" fill="white"/>
<rect x="0.587891" y="0.75" width="53.5" height="53.5" rx="26.75" stroke="#313131" stroke-width="0.5"/>
<rect width="24" height="24" transform="translate(15.3379 15.5)" fill="white"/>
<path fill-rule="evenodd" clip-rule="evenodd" d="M38.3779 27.7613C38.3779 26.9459 38.3047 26.1618 38.1688 25.4091H27.3379V29.8575H33.527C33.2604 31.295 32.4502 32.5129 31.2322 33.3284V36.2138H34.9488C37.1233 34.2118 38.3779 31.2636 38.3779 27.7613Z" fill="#4285F4"/>
<path fill-rule="evenodd" clip-rule="evenodd" d="M27.3379 38.9998C30.4429 38.9998 33.046 37.97 34.9488 36.2137L31.2322 33.3282C30.2024 34.0182 28.8851 34.4259 27.3379 34.4259C24.3426 34.4259 21.8074 32.403 20.9031 29.6848H17.061V32.6644C18.9533 36.4228 22.8424 38.9998 27.3379 38.9998Z" fill="#34A853"/>
<path fill-rule="evenodd" clip-rule="evenodd" d="M20.9031 29.6851C20.6731 28.9951 20.5424 28.2581 20.5424 27.5001C20.5424 26.7422 20.6731 26.0051 20.9031 25.3151V22.3356H17.0611C16.2822 23.8881 15.8379 25.6444 15.8379 27.5001C15.8379 29.3558 16.2822 31.1122 17.0611 32.6647L20.9031 29.6851Z" fill="#FBBC05"/>
<path fill-rule="evenodd" clip-rule="evenodd" d="M27.3379 20.5739C29.0263 20.5739 30.5422 21.1541 31.734 22.2936L35.0324 18.9952C33.0408 17.1395 30.4376 16 27.3379 16C22.8424 16 18.9533 18.577 17.061 22.3355L20.9031 25.315C21.8074 22.5968 24.3426 20.5739 27.3379 20.5739Z" fill="#EA4335"/>
</svg>
