<svg width="28" height="24" viewBox="0 0 28 24" fill="none" xmlns="http://www.w3.org/2000/svg">
<path fill-rule="evenodd" clip-rule="evenodd" d="M8.61719 3.33341C7.14443 3.33341 5.95052 4.52732 5.95052 6.00008C5.95052 6.78973 6.29205 7.49785 6.83974 7.98804C7.38844 8.47914 7.43513 9.32207 6.94403 9.87077C6.45293 10.4195 5.61 10.4662 5.0613 9.97507C3.97232 9.00041 3.28385 7.57976 3.28385 6.00008C3.28385 3.05456 5.67167 0.666748 8.61719 0.666748C9.9823 0.666748 11.2304 1.18137 12.1731 2.02509C12.7218 2.51619 12.7685 3.35912 12.2774 3.90782C11.7863 4.45653 10.9433 4.50322 10.3946 4.01212C9.92197 3.58907 9.30102 3.33341 8.61719 3.33341ZM15.728 2.02509C16.6706 1.18137 17.9187 0.666748 19.2839 0.666748C22.2294 0.666748 24.6172 3.05456 24.6172 6.00008C24.6172 7.57976 23.9287 9.00041 22.8397 9.97507C22.291 10.4662 21.4481 10.4195 20.957 9.87077C20.4659 9.32207 20.5126 8.47914 21.0613 7.98804C21.609 7.49785 21.9505 6.78973 21.9505 6.00008C21.9505 4.52732 20.7566 3.33341 19.2839 3.33341C18.6 3.33341 17.9791 3.58907 17.5064 4.01212C16.9577 4.50322 16.1148 4.45653 15.6237 3.90782C15.1326 3.35912 15.1793 2.51619 15.728 2.02509ZM13.9505 7.33341C12.4778 7.33341 11.2839 8.52732 11.2839 10.0001C11.2839 11.4728 12.4778 12.6667 13.9505 12.6667C15.4233 12.6667 16.6172 11.4728 16.6172 10.0001C16.6172 8.52732 15.4233 7.33341 13.9505 7.33341ZM8.61719 10.0001C8.61719 7.05456 11.005 4.66675 13.9505 4.66675C16.896 4.66675 19.2839 7.05456 19.2839 10.0001C19.2839 12.9456 16.896 15.3334 13.9505 15.3334C11.005 15.3334 8.61719 12.9456 8.61719 10.0001ZM7.24027 13.9953C7.427 14.7076 7.00094 15.4364 6.28863 15.6232C5.26533 15.8914 4.47131 16.3142 3.95912 16.7748C3.45056 17.2321 3.28385 17.6586 3.28385 18.0006C3.28385 18.737 2.6869 19.3339 1.95052 19.3339C1.21414 19.3339 0.617188 18.737 0.617188 18.0006C0.617188 16.7023 1.27321 15.6038 2.17601 14.792C3.07519 13.9833 4.28117 13.3926 5.61241 13.0437C6.32472 12.8569 7.05354 13.283 7.24027 13.9953ZM20.6608 13.9953C20.8475 13.283 21.5763 12.8569 22.2886 13.0437C23.6199 13.3926 24.8259 13.9833 25.725 14.792C26.6278 15.6038 27.2839 16.7023 27.2839 18.0006C27.2839 18.737 26.6869 19.3339 25.9505 19.3339C25.2141 19.3339 24.6172 18.737 24.6172 18.0006C24.6172 17.6586 24.4505 17.2321 23.9419 16.7748C23.4297 16.3142 22.6357 15.8914 21.6124 15.6232C20.9001 15.4364 20.474 14.7076 20.6608 13.9953ZM8.55048 18.0283C9.99708 17.1604 11.9095 16.6667 13.9505 16.6667C15.9916 16.6667 17.904 17.1604 19.3506 18.0283C20.7706 18.8804 21.9505 20.2432 21.9505 22.0001C21.9505 22.7365 21.3536 23.3334 20.6172 23.3334C19.8808 23.3334 19.2839 22.7365 19.2839 22.0001C19.2839 21.5479 18.9714 20.9107 17.9786 20.315C17.0123 19.7352 15.5914 19.3334 13.9505 19.3334C12.3097 19.3334 10.8887 19.7352 9.92247 20.315C8.92967 20.9107 8.61719 21.5479 8.61719 22.0001C8.61719 22.7365 8.02023 23.3334 7.28385 23.3334C6.54747 23.3334 5.95052 22.7365 5.95052 22.0001C5.95052 20.2432 7.13042 18.8804 8.55048 18.0283Z" fill="white"/>
</svg>
