<svg width="27" height="24" viewBox="0 0 27 24" fill="none" xmlns="http://www.w3.org/2000/svg">
<path d="M13.4504 8.39998V22M13.4504 8.39998C13.4504 6.15977 13.4504 5.04014 13.8864 4.18449C14.2699 3.43184 14.8814 2.81971 15.634 2.43622C16.4897 2.00024 17.61 2.00024 19.8502 2.00024H23.3168C24.0636 2.00024 24.4372 2.00024 24.7224 2.14557C24.9733 2.2734 25.1768 2.47723 25.3046 2.72811C25.4499 3.01332 25.4504 3.38697 25.4504 4.13371V15.867C25.4504 16.6138 25.4499 16.9866 25.3046 17.2718C25.1768 17.5227 24.9737 17.7272 24.7229 17.8551C24.4379 18.0002 24.0651 18.0002 23.3198 18.0002H19.5429C18.2906 18.0002 17.6633 18.0002 17.095 18.1728C16.5918 18.3257 16.1247 18.5759 15.7184 18.9097C15.2595 19.2869 14.9118 19.8079 14.2172 20.8499L13.4504 22M13.4504 8.39998C13.4504 6.15977 13.4502 5.04014 13.0142 4.18449C12.6307 3.43184 12.0188 2.81971 11.2661 2.43622C10.4105 2.00024 9.29013 2.00024 7.04992 2.00024H3.58325C2.83652 2.00024 2.46352 2.00024 2.1783 2.14557C1.92742 2.2734 1.7236 2.47723 1.59576 2.72811C1.45044 3.01332 1.45044 3.38697 1.45044 4.13371V15.867C1.45044 16.6138 1.45044 16.9866 1.59576 17.2718C1.7236 17.5227 1.92742 17.7272 2.1783 17.8551C2.46324 18.0002 2.83579 18.0002 3.58106 18.0002H7.35808C8.61036 18.0002 9.23633 18.0002 9.80469 18.1728C10.3078 18.3257 10.7773 18.5759 11.1835 18.9097C11.6405 19.2854 11.9861 19.8037 12.6751 20.8372L13.4504 22" stroke="white" stroke-width="2.5" stroke-linecap="round" stroke-linejoin="round"/>
</svg>
