<svg width="27" height="28" viewBox="0 0 27 28" fill="none" xmlns="http://www.w3.org/2000/svg">
<path d="M13.4693 0.665283C6.10532 0.665283 0.135986 6.63462 0.135986 13.9986C0.135986 15.6946 0.485312 17.4133 1.09465 18.9573L2.13599 21.0813C2.79599 22.4533 2.56399 23.7466 1.67733 25.3319C1.18799 26.2093 1.79865 27.2666 2.80265 27.2906C4.15865 27.3213 6.41199 26.8893 8.13599 26.2493C9.72799 26.984 11.6933 27.3319 13.4693 27.3319C20.8333 27.3319 26.8027 21.3626 26.8027 13.9986C26.8027 6.63462 20.8333 0.665283 13.4693 0.665283ZM13.4693 3.33195C19.36 3.33195 24.136 8.10795 24.136 13.9986C24.136 19.8893 19.36 24.6653 13.4693 24.6653C11.936 24.6653 10.0093 24.2706 8.80265 23.6239C8.44532 23.4319 8.00799 23.3813 7.63599 23.54C6.78532 23.904 5.92664 24.1773 4.92798 24.3733C5.32798 22.972 5.20933 21.368 4.51066 19.916L3.51066 17.8733C3.06666 16.7373 2.80265 15.3586 2.80265 13.9986C2.80265 8.10795 7.57865 3.33195 13.4693 3.33195ZM8.13599 12.6653C7.39999 12.6653 6.80265 13.2626 6.80265 13.9986C6.80265 14.7346 7.39999 15.3319 8.13599 15.3319C8.87199 15.3319 9.46932 14.7346 9.46932 13.9986C9.46932 13.2626 8.87199 12.6653 8.13599 12.6653ZM13.4693 12.6653C12.7333 12.6653 12.136 13.2626 12.136 13.9986C12.136 14.7346 12.7333 15.3319 13.4693 15.3319C14.2053 15.3319 14.8027 14.7346 14.8027 13.9986C14.8027 13.2626 14.2053 12.6653 13.4693 12.6653ZM18.8027 12.6653C18.0667 12.6653 17.4693 13.2626 17.4693 13.9986C17.4693 14.7346 18.0667 15.3319 18.8027 15.3319C19.5387 15.3319 20.136 14.7346 20.136 13.9986C20.136 13.2626 19.5387 12.6653 18.8027 12.6653Z" fill="white"/>
</svg>
