<svg width="28" height="28" viewBox="0 0 28 28" fill="none" xmlns="http://www.w3.org/2000/svg">
<path fill-rule="evenodd" clip-rule="evenodd" d="M6.99085 0.540022C7.43401 1.12812 7.31652 1.96412 6.72842 2.40729C5.07336 3.65447 3.7695 5.309 2.94381 7.20977C2.65042 7.88517 1.86505 8.19486 1.18964 7.90146C0.514234 7.60807 0.204552 6.8227 0.497947 6.14729C1.50712 3.82413 3.10073 1.80192 5.12358 0.277595C5.71168 -0.165569 6.54768 -0.0480764 6.99085 0.540022ZM20.9099 0.540022C21.3531 -0.0480764 22.1891 -0.165569 22.7772 0.277595C24.8 1.80192 26.3937 3.82413 27.4028 6.14729C27.6962 6.8227 27.3865 7.60807 26.7111 7.90146C26.0357 8.19485 25.2504 7.88517 24.957 7.20977C24.1313 5.309 22.8274 3.65447 21.1724 2.40729C20.5843 1.96412 20.4668 1.12812 20.9099 0.540022ZM13.95 3.99088C9.53177 3.99089 5.95004 7.57261 5.95004 11.9909V16.9541C5.95004 17.5455 5.71466 18.1117 5.29761 18.5287L4.77827 19.0481C4.69358 19.1328 4.65109 19.1755 4.62131 19.2073C4.62028 19.2084 4.6193 19.2095 4.61838 19.2104C4.61834 19.2117 4.61829 19.213 4.61825 19.2144C4.61686 19.2582 4.61671 19.3183 4.61671 19.4388C4.61671 19.7109 4.61721 19.8597 4.62332 19.9677C4.62364 19.9733 4.62396 19.9785 4.62429 19.9834C4.62875 19.9837 4.63352 19.984 4.6386 19.9843C4.74545 19.9904 4.89268 19.9909 5.16278 19.9909H22.7374C23.0074 19.9909 23.155 19.9904 23.2621 19.9843C23.2668 19.984 23.2712 19.9838 23.2754 19.9835C23.2757 19.9786 23.2761 19.9733 23.2764 19.9677C23.2825 19.8597 23.283 19.7109 23.283 19.4388C23.283 19.3191 23.2828 19.2589 23.2814 19.2156C23.2813 19.2136 23.2812 19.2117 23.2812 19.21C23.2806 19.2093 23.28 19.2087 23.2794 19.208C23.2491 19.1758 23.2065 19.133 23.1216 19.0481L22.6023 18.5287C22.1847 18.1111 21.95 17.5447 21.95 16.9541V11.9909C21.95 7.57259 18.3683 3.99087 13.95 3.99088ZM3.28338 11.9909C3.28338 6.09985 8.05902 1.32423 13.95 1.32421C19.8411 1.3242 24.6167 6.09984 24.6167 11.9909V16.7719L25.0073 17.1625C25.018 17.1733 25.0291 17.1843 25.0405 17.1956C25.1639 17.3186 25.3203 17.4744 25.4498 17.6548C25.6916 17.9916 25.8483 18.3767 25.9142 18.7782C25.9503 18.9983 25.95 19.2174 25.9497 19.3945C25.9497 19.4096 25.9497 19.4244 25.9497 19.4388C25.9497 19.4751 25.9498 19.5124 25.9499 19.5506C25.9514 19.9396 25.9532 20.4182 25.8098 20.8434C25.5442 21.6306 24.927 22.2512 24.1363 22.5179C23.7119 22.6611 23.2342 22.6593 22.8482 22.6578C22.8103 22.6577 22.7733 22.6575 22.7374 22.6575H19.2834C19.2834 25.6031 16.8956 27.9909 13.95 27.9909C11.0045 27.9909 8.61671 25.6031 8.61671 22.6575H5.16279C5.12681 22.6575 5.08982 22.6577 5.05197 22.6578C4.66591 22.6593 4.18919 22.6611 3.76478 22.5179C2.97624 22.252 2.35619 21.6328 2.08992 20.8433C1.94649 20.4181 1.94829 19.9396 1.94976 19.5506C1.9499 19.5124 1.95005 19.4751 1.95005 19.4388C1.95005 19.4235 1.95002 19.4079 1.94999 19.3918C1.94966 19.217 1.94926 18.9975 1.98525 18.7782C2.05162 18.3738 2.21022 17.9893 2.45033 17.6549C2.58034 17.4738 2.73584 17.3188 2.86098 17.1941C2.87177 17.1833 2.88234 17.1728 2.89265 17.1625L3.28338 16.7717V11.9909ZM11.2834 22.6575C11.2834 24.1303 12.4773 25.3242 13.95 25.3242C15.4228 25.3242 16.6167 24.1303 16.6167 22.6575H11.2834Z" fill="white"/>
</svg>
