<svg width="28" height="24" viewBox="0 0 28 24" fill="none" xmlns="http://www.w3.org/2000/svg">
<path d="M1.95052 0.666748C2.6869 0.666748 3.28386 1.2637 3.28386 2.00008V12.487L6.23481 10.0279L6.24323 10.021L6.27187 9.99711L6.2719 9.99709C6.70859 9.63315 7.08767 9.31723 7.42125 9.07636C7.77435 8.82139 8.14993 8.59485 8.59527 8.45583C9.49037 8.17642 10.4542 8.22077 11.3195 8.57971C11.7508 8.75863 12.1046 9.01841 12.4337 9.30479C12.7446 9.57531 13.0942 9.92496 13.4973 10.3281L13.4974 10.3282L13.5363 10.3671C13.9852 10.8159 14.2741 11.1038 14.5108 11.3094C14.7371 11.506 14.8439 11.5622 14.9018 11.5857C15.1943 11.7049 15.5219 11.7159 15.825 11.6153C15.8854 11.5953 15.9967 11.5458 16.237 11.3637C16.4881 11.1734 16.7977 10.9038 17.2782 10.4833L25.0725 3.66331C25.6267 3.1784 26.469 3.23456 26.9539 3.78874C27.4388 4.34292 27.3827 5.18527 26.8285 5.67018L19.0069 12.514L19.0069 12.5141C18.5656 12.9002 18.1838 13.2343 17.8474 13.4892C17.4931 13.7577 17.1154 13.9968 16.6646 14.1464C15.7619 14.4458 14.7797 14.4155 13.8957 14.0553C13.4564 13.8764 13.0963 13.6129 12.7621 13.3226C12.4461 13.0482 12.0908 12.6929 11.6814 12.2834L11.6813 12.2833L11.6421 12.2441C11.2 11.802 10.9159 11.5189 10.6832 11.3165C10.461 11.1231 10.3557 11.0669 10.2977 11.0428C10.0087 10.923 9.68766 10.9084 9.38989 11.0014C9.33035 11.0199 9.22068 11.0662 8.98238 11.2383C8.7329 11.4184 8.42509 11.674 7.94622 12.073L7.9378 12.0799L3.28386 15.9582V17.7334C3.28386 18.5022 3.28489 18.9984 3.31576 19.376C3.34534 19.738 3.39555 19.8722 3.42918 19.9382C3.55761 20.1903 3.76186 20.3945 4.01157 20.5217C4.07719 20.5551 4.21124 20.6053 4.573 20.6349C4.95026 20.6657 5.44581 20.6667 6.21307 20.6667H25.9508C26.6872 20.6667 27.2841 21.2637 27.2841 22.0001C27.2841 22.7365 26.6872 23.3334 25.9508 23.3334H6.16171C5.46026 23.3334 4.85472 23.3335 4.35581 23.2927C3.82927 23.2497 3.30518 23.1547 2.80093 22.8977C2.04712 22.5136 1.43606 21.9003 1.05316 21.1489C0.796143 20.6444 0.70103 20.1203 0.657952 19.5932C0.617145 19.0939 0.617165 18.4877 0.617188 17.7849V17.7848L0.61719 2.00008C0.61719 1.2637 1.21414 0.666748 1.95052 0.666748Z" fill="white"/>
</svg>
