<svg width="47" height="46" viewBox="0 0 47 46" fill="none" xmlns="http://www.w3.org/2000/svg">
<path d="M46.9504 17.8551C46.9504 17.9104 46.9504 17.9656 46.9431 18.0172C46.9394 18.0504 46.9357 18.0836 46.932 18.1167V18.1241C46.8878 18.4042 46.7846 18.6806 46.6114 18.9239C46.5782 18.9718 46.5414 19.016 46.5045 19.0602L46.0696 19.5725L45.0266 20.8035L44.0905 21.9091L40.534 26.1069C40.1691 26.5344 39.6494 26.7556 39.1261 26.7556C38.706 26.7556 38.2821 26.6118 37.9357 26.3207C37.1617 25.661 37.0659 24.5 37.7219 23.7224L39.2588 21.9091L40.1949 20.8035L41.131 19.6978H17.8533L5.07936 41.892H14.9418V33.3711C14.9418 32.3539 15.7673 31.5283 16.7845 31.5283H19.8914C23.2637 31.5283 26.4406 30.1168 28.8398 27.5553C30.3435 25.9558 31.4234 24.0209 32.0352 21.9091H35.8386C35.1458 24.9755 33.6716 27.7912 31.5266 30.0762C28.4271 33.3895 24.2919 35.2138 19.8914 35.2138H18.6273V43.7347C18.6273 44.7519 17.8017 45.5775 16.7845 45.5775H1.89139C1.23537 45.5775 0.627264 45.2274 0.295568 44.6561C-0.032442 44.0885 -0.032442 43.3846 0.295568 42.8133L14.4995 18.1315L0.560925 3.54055C0.0486391 3.00615 -0.0914102 2.22114 0.199745 1.543C0.487215 0.864869 1.15429 0.422607 1.89139 0.422607H19.8914C27.6273 0.422607 34.1359 6.13883 35.8497 13.801H32.0462C30.4541 8.19535 25.604 4.10812 19.8914 4.10812H6.19976L17.5732 16.0123H41.12L39.2404 13.801L37.4418 11.6855C37.147 11.3391 37.0032 10.9153 37.0032 10.4951C37.0032 9.97176 37.2207 9.45211 37.6519 9.09093C38.4259 8.43122 39.5905 8.52336 40.2502 9.29732L44.0794 13.801L45.0192 14.9067L46.0585 16.1339L46.5119 16.6646H46.5156C46.5156 16.6646 46.5192 16.672 46.5192 16.6757C46.7514 16.9484 46.8915 17.2764 46.9357 17.6155C46.9357 17.6597 46.9431 17.7076 46.9468 17.7556C46.9504 17.7887 46.9504 17.8219 46.9504 17.8551Z" fill="#88D8F9"/>
</svg>
