<svg width="25" height="26" viewBox="0 0 25 26" fill="none" xmlns="http://www.w3.org/2000/svg">
<path fill-rule="evenodd" clip-rule="evenodd" d="M13.3287 3.49313C13.082 3.42015 12.8185 3.42015 12.5717 3.49313C12.5035 3.5133 12.384 3.56306 12.1295 3.75337C11.8616 3.95369 11.5332 4.2398 11.0208 4.68813L4.61873 10.29C4.03199 10.8034 3.92189 10.914 3.8478 11.0232C3.76124 11.1507 3.69815 11.2897 3.66034 11.4344C3.62715 11.5615 3.61702 11.7154 3.61702 12.4977V19.6283C3.61702 20.397 3.61806 20.8936 3.64893 21.2715C3.67853 21.634 3.7288 21.7683 3.76235 21.8342C3.89014 22.085 4.09377 22.2886 4.34474 22.4165C4.41036 22.4499 4.54441 22.5001 4.90617 22.5297C5.28342 22.5605 5.77897 22.5615 6.54623 22.5615H19.3545C20.1218 22.5615 20.617 22.5605 20.9939 22.5297C21.3552 22.5001 21.4891 22.45 21.5549 22.4165C21.8073 22.2879 22.0116 22.0835 22.1386 21.8342C22.1721 21.7685 22.2223 21.6345 22.2518 21.2729C22.2826 20.8957 22.2837 20.4002 22.2837 19.633V12.4977C22.2837 11.7175 22.2731 11.5619 22.2398 11.4344C22.2013 11.2872 22.1383 11.1485 22.0533 11.0232C21.9792 10.914 21.8691 10.8035 21.2822 10.29L14.8822 4.68998C14.3692 4.24105 14.0402 3.95449 13.7719 3.7539C13.517 3.56329 13.3972 3.51337 13.3287 3.49313ZM11.8155 0.935942C12.5558 0.716991 13.3446 0.716991 14.085 0.935942C14.5767 1.08136 14.9859 1.33192 15.3687 1.61814C15.7295 1.88787 16.1362 2.24375 16.6042 2.65335L23.0383 8.28311C23.0668 8.30807 23.0951 8.33282 23.1232 8.35737C23.5733 8.7505 23.967 9.09445 24.2596 9.52543C24.5156 9.9026 24.7047 10.3199 24.8198 10.7603C24.9514 11.2639 24.9509 11.7868 24.9504 12.3834C24.9504 12.4212 24.9503 12.4593 24.9503 12.4977V19.6843C24.9504 20.3858 24.9504 20.9913 24.9096 21.4901C24.8666 22.0166 24.7716 22.5406 24.5147 23.0448C24.1304 23.799 23.5166 24.4098 22.7655 24.7925C22.2614 25.0494 21.7377 25.1444 21.2113 25.1875C20.7126 25.2282 20.1072 25.2282 19.4058 25.2282H6.49488C5.79342 25.2282 5.18789 25.2282 4.68897 25.1875C4.16243 25.1444 3.63835 25.0494 3.1341 24.7925C2.38153 24.4091 1.76987 23.7976 1.38633 23.0448C1.12923 22.5402 1.03417 22.0158 0.991113 21.4886C0.950311 20.989 0.950332 20.3826 0.950356 19.6797L0.950357 12.4977C0.950357 12.4568 0.950316 12.4163 0.950275 12.376C0.949677 11.7841 0.949149 11.2622 1.0803 10.7603C1.19602 10.3174 1.38691 9.90041 1.64146 9.52543C1.93413 9.09429 2.32791 8.75032 2.77834 8.35685C2.80625 8.33247 2.83438 8.3079 2.86271 8.28311L9.26483 2.68125L9.30039 2.65014C9.767 2.24183 10.1727 1.88684 10.5326 1.61771C10.915 1.33176 11.3239 1.08131 11.8155 0.935942Z" fill="white"/>
</svg>
