<svg width="26" height="26" viewBox="0 0 26 26" fill="none" xmlns="http://www.w3.org/2000/svg">
<path d="M11.2823 0.604248C5.3912 0.604248 0.615734 5.38025 0.615601 11.2709C0.615601 17.1616 5.3912 21.9376 11.2823 21.9376C13.7312 21.9376 16.0295 21.0723 17.83 19.6842L23.6572 25.5629C24.178 26.0829 25.0532 26.0829 25.574 25.5629C26.0947 25.0416 26.0947 24.1669 25.574 23.6456L19.6993 17.8109C21.0871 16.0109 21.9489 13.7203 21.9489 11.2709C21.9489 5.38025 17.1733 0.604248 11.2823 0.604248ZM11.2823 3.27092C15.7005 3.27092 19.2821 6.85225 19.2823 11.2709C19.2823 15.6896 15.7005 19.2709 11.2823 19.2709C6.864 19.2709 3.2824 15.6896 3.28227 11.2709C3.28227 6.85225 6.864 3.27092 11.2823 3.27092Z" fill="#ADADAD"/>
</svg>
