<svg width="19" height="19" viewBox="0 0 19 19" fill="none" xmlns="http://www.w3.org/2000/svg">
<path fill-rule="evenodd" clip-rule="evenodd" d="M9.54759 2.21488C9.36249 2.16014 9.16489 2.16014 8.9798 2.21488C8.92866 2.23 8.83903 2.26733 8.64815 2.41006C8.44722 2.5603 8.20094 2.77488 7.81666 3.11113L3.01507 7.31252C2.57502 7.69756 2.49245 7.78054 2.43687 7.8624C2.37196 7.95803 2.32464 8.06233 2.29628 8.17086C2.27139 8.26612 2.26379 8.38162 2.26379 8.96834V14.3163C2.26379 14.8928 2.26457 15.2652 2.28772 15.5487C2.30993 15.8205 2.34762 15.9213 2.37279 15.9707C2.46863 16.1588 2.62136 16.3115 2.80958 16.4074C2.8588 16.4325 2.95933 16.4701 3.23065 16.4923C3.51359 16.5154 3.88525 16.5162 4.4607 16.5162H14.0669C14.6423 16.5162 15.0138 16.5154 15.2965 16.4923C15.5674 16.4701 15.6679 16.4325 15.7172 16.4074C15.9065 16.311 16.0597 16.1577 16.155 15.9707C16.1801 15.9214 16.2177 15.8209 16.2399 15.5497C16.263 15.2668 16.2638 14.8952 16.2638 14.3198V8.96834C16.2638 8.38312 16.2558 8.26648 16.2308 8.17086C16.202 8.06042 16.1548 7.95638 16.091 7.8624C16.0354 7.78057 15.9529 7.69767 15.5127 7.31252L10.7127 3.11252C10.3279 2.77582 10.0812 2.5609 9.87998 2.41045C9.68877 2.2675 9.59891 2.23006 9.54759 2.21488ZM8.41263 0.296988C8.96791 0.132775 9.55947 0.132775 10.1148 0.296988C10.4836 0.406053 10.7904 0.593973 11.0775 0.808637C11.3481 1.01093 11.6532 1.27785 12.0042 1.58504L16.8297 5.80736C16.8511 5.82609 16.8724 5.84465 16.8934 5.86306C17.231 6.15791 17.5263 6.41587 17.7457 6.73911C17.9378 7.02198 18.0796 7.33498 18.1659 7.66523C18.2646 8.04295 18.2642 8.4351 18.2638 8.88256C18.2638 8.91093 18.2638 8.93952 18.2638 8.96834V14.3583C18.2638 14.8844 18.2638 15.3385 18.2332 15.7126C18.201 16.1075 18.1297 16.5005 17.937 16.8787C17.6488 17.4443 17.1885 17.9024 16.6252 18.1894C16.2471 18.3821 15.8543 18.4534 15.4595 18.4856C15.0855 18.5162 14.6315 18.5162 14.1054 18.5162H4.42218C3.89609 18.5162 3.44194 18.5162 3.06776 18.4856C2.67285 18.4534 2.27979 18.3821 1.9016 18.1894C1.33718 17.9018 0.878425 17.4432 0.590774 16.8787C0.397951 16.5002 0.326653 16.1069 0.29436 15.7115C0.263759 15.3368 0.263774 14.882 0.263792 14.3548L0.263793 8.96834C0.263793 8.93766 0.263762 8.90724 0.263732 8.87706C0.263283 8.43309 0.262887 8.04166 0.36125 7.66523C0.448043 7.33307 0.591211 7.02034 0.78212 6.73911C1.00162 6.41575 1.29695 6.15777 1.63478 5.86267C1.65572 5.84439 1.67681 5.82596 1.69806 5.80736L6.49965 1.60597L6.52632 1.58264C6.87628 1.2764 7.18053 1.01016 7.45048 0.808315C7.7373 0.593849 8.04396 0.406013 8.41263 0.296988Z" fill="#313131"/>
</svg>
