<svg width="21" height="21" viewBox="0 0 21 21" fill="none" xmlns="http://www.w3.org/2000/svg">
<path d="M10.7773 0.345703C5.25434 0.345703 0.777344 4.8227 0.777344 10.3457C0.777344 11.6177 1.03934 12.9067 1.49634 14.0647L2.27734 15.6577C2.77234 16.6867 2.59835 17.6567 1.93335 18.8457C1.56635 19.5037 2.02434 20.2967 2.77734 20.3147C3.79434 20.3377 5.48434 20.0137 6.77735 19.5337C7.97135 20.0847 9.44535 20.3457 10.7773 20.3457C16.3003 20.3457 20.7773 15.8687 20.7773 10.3457C20.7773 4.8227 16.3003 0.345703 10.7773 0.345703ZM10.7773 2.3457C15.1953 2.3457 18.7773 5.9277 18.7773 10.3457C18.7773 14.7637 15.1953 18.3457 10.7773 18.3457C9.62735 18.3457 8.18235 18.0497 7.27735 17.5647C7.00935 17.4207 6.68134 17.3827 6.40235 17.5017C5.76434 17.7747 5.12034 17.9797 4.37134 18.1267C4.67134 17.0757 4.58235 15.8727 4.05835 14.7837L3.30835 13.2517C2.97535 12.3997 2.77734 11.3657 2.77734 10.3457C2.77734 5.9277 6.35934 2.3457 10.7773 2.3457ZM6.77735 9.34571C6.22535 9.34571 5.77734 9.7937 5.77734 10.3457C5.77734 10.8977 6.22535 11.3457 6.77735 11.3457C7.32935 11.3457 7.77735 10.8977 7.77735 10.3457C7.77735 9.7937 7.32935 9.34571 6.77735 9.34571ZM10.7773 9.34571C10.2253 9.34571 9.77735 9.7937 9.77735 10.3457C9.77735 10.8977 10.2253 11.3457 10.7773 11.3457C11.3293 11.3457 11.7773 10.8977 11.7773 10.3457C11.7773 9.7937 11.3293 9.34571 10.7773 9.34571ZM14.7773 9.34571C14.2253 9.34571 13.7773 9.7937 13.7773 10.3457C13.7773 10.8977 14.2253 11.3457 14.7773 11.3457C15.3293 11.3457 15.7773 10.8977 15.7773 10.3457C15.7773 9.7937 15.3293 9.34571 14.7773 9.34571Z" fill="#313131"/>
</svg>
