<svg width="25" height="25" viewBox="0 0 25 25" fill="none" xmlns="http://www.w3.org/2000/svg">
<path d="M11.2344 18.1865C11.2344 18.7388 11.6821 19.1865 12.2344 19.1865C12.7867 19.1865 13.2344 18.7388 13.2344 18.1865C13.2344 17.6342 12.7867 17.1865 12.2344 17.1865C11.6821 17.1865 11.2344 17.6342 11.2344 18.1865Z" stroke="#ADADAD" stroke-width="2" stroke-linecap="round" stroke-linejoin="round"/>
<path d="M11.2344 12.1865C11.2344 12.7388 11.6821 13.1865 12.2344 13.1865C12.7867 13.1865 13.2344 12.7388 13.2344 12.1865C13.2344 11.6342 12.7867 11.1865 12.2344 11.1865C11.6821 11.1865 11.2344 11.6342 11.2344 12.1865Z" stroke="#ADADAD" stroke-width="2" stroke-linecap="round" stroke-linejoin="round"/>
<path d="M11.2344 6.18652C11.2344 6.73881 11.6821 7.18652 12.2344 7.18652C12.7867 7.18652 13.2344 6.73881 13.2344 6.18652C13.2344 5.63424 12.7867 5.18652 12.2344 5.18652C11.6821 5.18652 11.2344 5.63424 11.2344 6.18652Z" stroke="#ADADAD" stroke-width="2" stroke-linecap="round" stroke-linejoin="round"/>
</svg>
