<svg width="21" height="22" viewBox="0 0 21 22" fill="none" xmlns="http://www.w3.org/2000/svg">
<path fill-rule="evenodd" clip-rule="evenodd" d="M5.04453 1.25176C5.3769 1.69283 5.28878 2.31983 4.84771 2.65221C3.60641 3.58759 2.62852 4.82849 2.00925 6.25407C1.7892 6.76062 1.20018 6.99288 0.693622 6.77284C0.187067 6.55279 -0.0451945 5.96376 0.174852 5.45721C0.931732 3.71484 2.12694 2.19818 3.64408 1.05494C4.08515 0.722564 4.71215 0.810683 5.04453 1.25176ZM15.4838 1.25176C15.8162 0.810683 16.4432 0.722564 16.8843 1.05494C18.4014 2.19818 19.5966 3.71484 20.3535 5.45721C20.5736 5.96377 20.3413 6.55279 19.8347 6.77284C19.3282 6.99288 18.7392 6.76062 18.5191 6.25407C17.8999 4.82849 16.922 3.58759 15.6807 2.65221C15.2396 2.31983 15.1515 1.69283 15.4838 1.25176ZM10.2639 3.8399C6.95022 3.83991 4.26393 6.5262 4.26393 9.8399V13.5623C4.26393 14.0059 4.08739 14.4305 3.7746 14.7433L3.3851 15.1328C3.32158 15.1963 3.28971 15.2284 3.26737 15.2522C3.2666 15.2531 3.26587 15.2538 3.26518 15.2546C3.26515 15.2555 3.26511 15.2565 3.26508 15.2576C3.26404 15.2904 3.26393 15.3355 3.26393 15.4259C3.26393 15.6299 3.2643 15.7415 3.26888 15.8225C3.26912 15.8267 3.26937 15.8307 3.26961 15.8343C3.27296 15.8345 3.27653 15.8348 3.28035 15.835C3.36048 15.8395 3.4709 15.8399 3.67348 15.8399H16.8544C17.057 15.8399 17.1676 15.8395 17.248 15.835C17.2515 15.8348 17.2548 15.8346 17.258 15.8344C17.2582 15.8307 17.2584 15.8267 17.2587 15.8225C17.2633 15.7415 17.2636 15.6299 17.2636 15.4258C17.2636 15.3361 17.2635 15.291 17.2624 15.2585C17.2624 15.2569 17.2623 15.2555 17.2623 15.2542C17.2618 15.2537 17.2614 15.2533 17.2609 15.2528C17.2382 15.2286 17.2063 15.1965 17.1426 15.1328L16.7531 14.7433C16.4399 14.4301 16.2639 14.0053 16.2639 13.5623V9.8399C16.2639 6.52618 13.5776 3.83989 10.2639 3.8399ZM2.26393 9.8399C2.26393 5.42163 5.84566 1.83991 10.2639 1.8399C14.6822 1.83989 18.2639 5.42162 18.2639 9.8399V13.4257L18.5569 13.7186C18.5649 13.7267 18.5732 13.735 18.5818 13.7435C18.6743 13.8357 18.7916 13.9526 18.8888 14.0879C19.0701 14.3405 19.1876 14.6293 19.2371 14.9304C19.2641 15.0955 19.2639 15.2598 19.2637 15.3926C19.2637 15.4039 19.2636 15.415 19.2636 15.4258C19.2636 15.4531 19.2638 15.4811 19.2639 15.5097C19.265 15.8015 19.2663 16.1604 19.1587 16.4793C18.9596 17.0697 18.4967 17.5352 17.9036 17.7352C17.5853 17.8426 17.227 17.8412 16.9375 17.8401C16.9091 17.84 16.8814 17.8399 16.8544 17.8399H14.2639C14.2639 20.049 12.4731 21.8399 10.2639 21.8399C8.05479 21.8399 6.26393 20.049 6.26393 17.8399H3.67348C3.6465 17.8399 3.61876 17.84 3.59037 17.8401C3.30083 17.8412 2.94329 17.8426 2.62498 17.7352C2.03357 17.5357 1.56854 17.0713 1.36883 16.4793C1.26126 16.1603 1.26261 15.8015 1.26371 15.5097C1.26382 15.4811 1.26393 15.4531 1.26393 15.4259C1.26393 15.4144 1.2639 15.4026 1.26388 15.3906C1.26364 15.2595 1.26334 15.0949 1.29033 14.9304C1.34011 14.6271 1.45906 14.3387 1.63914 14.0879C1.73665 13.9521 1.85327 13.8358 1.94713 13.7423C1.95522 13.7342 1.96315 13.7263 1.97088 13.7186L2.26393 13.4255V9.8399ZM8.26393 17.8399C8.26393 18.9445 9.15936 19.8399 10.2639 19.8399C11.3685 19.8399 12.2639 18.9445 12.2639 17.8399H8.26393Z" fill="#313131"/>
</svg>
