<svg width="48" height="46" viewBox="0 0 48 46" fill="none" xmlns="http://www.w3.org/2000/svg">
<path d="M47.2642 17.7C47.2642 17.7553 47.2642 17.8106 47.2568 17.8622C47.2531 17.8954 47.2494 17.9285 47.2457 17.9617V17.9691C47.2015 18.2492 47.0983 18.5256 46.9251 18.7688C46.8919 18.8168 46.8551 18.861 46.8182 18.9052L46.3833 19.4175L45.3403 20.6484L44.4042 21.7541L40.8477 25.9519C40.4828 26.3794 39.9632 26.6005 39.4398 26.6005C39.0197 26.6005 38.5958 26.4568 38.2494 26.1657C37.4754 25.506 37.3796 24.345 38.0356 23.5674L39.5725 21.7541L40.5086 20.6484L41.4447 19.5428H18.1671L5.39308 41.7369H15.2555V33.216C15.2555 32.1988 16.0811 31.3733 17.0983 31.3733H20.2051C23.5774 31.3733 26.7543 29.9617 29.1536 27.4003C30.6573 25.8008 31.7371 23.8659 32.3489 21.7541H36.1523C35.4595 24.8204 33.9853 27.6362 31.8403 29.9212C28.7408 33.2345 24.6056 35.0588 20.2051 35.0588H18.941V43.5797C18.941 44.5969 18.1155 45.4224 17.0983 45.4224H2.20511C1.54909 45.4224 0.940985 45.0723 0.609289 44.5011C0.281279 43.9335 0.281279 43.2296 0.609289 42.6583L14.8132 17.9765L0.874646 3.38552C0.36236 2.85112 0.22231 2.06611 0.513466 1.38797C0.800936 0.709839 1.46801 0.267578 2.20511 0.267578H20.2051C27.941 0.267578 34.4496 5.9838 36.1634 13.646H32.36C30.7678 8.04032 25.9177 3.95309 20.2051 3.95309H6.51348L17.887 15.8573H41.4337L39.5541 13.646L37.7555 11.5305C37.4607 11.1841 37.317 10.7602 37.317 10.3401C37.317 9.81674 37.5344 9.29708 37.9656 8.9359C38.7396 8.27619 39.9042 8.36833 40.5639 9.14229L44.3932 13.646L45.333 14.7516L46.3723 15.9789L46.8256 16.5096H46.8293C46.8293 16.5096 46.833 16.517 46.833 16.5207C47.0651 16.7934 47.2052 17.1214 47.2494 17.4605C47.2494 17.5047 47.2568 17.5526 47.2605 17.6005C47.2642 17.6337 47.2642 17.6669 47.2642 17.7Z" fill="url(#paint0_linear_1222_1574)"/>
<defs>
<linearGradient id="paint0_linear_1222_1574" x1="42.061" y1="26.5558" x2="0.363282" y2="0.267577" gradientUnits="userSpaceOnUse">
<stop stop-color="#70D4FC"/>
<stop offset="1" stop-color="#0084B9"/>
</linearGradient>
</defs>
</svg>
