<svg width="110" height="32" viewBox="0 0 110 32" fill="none" xmlns="http://www.w3.org/2000/svg">
<path d="M32.1326 12.4433C32.1326 12.4811 32.1326 12.519 32.1275 12.5544C32.125 12.5771 32.1225 12.5998 32.1199 12.6225V12.6276C32.0896 12.8195 32.0189 13.0089 31.9003 13.1755C31.8775 13.2083 31.8523 13.2386 31.827 13.2689L31.5291 13.6199L30.8145 14.4633L30.1732 15.2208L27.7365 18.0968C27.4866 18.3897 27.1305 18.5412 26.772 18.5412C26.4841 18.5412 26.1938 18.4427 25.9564 18.2432C25.4262 17.7912 25.3605 16.9959 25.81 16.4631L26.8629 15.2208L27.5042 14.4633L28.1456 13.7058H12.1977L3.446 28.9114H10.2029V23.0735C10.2029 22.3766 10.7685 21.811 11.4654 21.811H13.594C15.9044 21.811 18.0809 20.844 19.7247 19.0891C20.7549 17.9932 21.4947 16.6676 21.9139 15.2208H24.5197C24.045 17.3216 23.035 19.2507 21.5654 20.8162C19.4419 23.0862 16.6088 24.336 13.594 24.336H12.7279V30.1739C12.7279 30.8708 12.1623 31.4364 11.4654 31.4364H1.26187C0.81242 31.4364 0.395794 31.1965 0.168544 30.8051C-0.0561813 30.4163 -0.0561813 29.934 0.168544 29.5426L9.89991 12.6326L0.350344 2.63615C-0.000631266 2.27003 -0.0965814 1.7322 0.102894 1.2676C0.299844 0.803001 0.75687 0.5 1.26187 0.5H13.594C18.894 0.5 23.3531 4.41628 24.5273 9.66577H21.9215C20.8307 5.82523 17.5077 3.025 13.594 3.025H4.2136L12.0058 11.1808H28.138L26.8503 9.66577L25.6181 8.21641C25.4161 7.97906 25.3176 7.68869 25.3176 7.40084C25.3176 7.04229 25.4666 6.68626 25.762 6.43881C26.2922 5.98684 27.0901 6.04996 27.5421 6.58021L30.1656 9.66577L30.8095 10.4233L31.5215 11.2641L31.8321 11.6277H31.8346C31.8346 11.6277 31.8371 11.6327 31.8371 11.6353C31.9962 11.8221 32.0922 12.0468 32.1225 12.2791C32.1225 12.3094 32.1275 12.3423 32.1301 12.3751C32.1326 12.3978 32.1326 12.4205 32.1326 12.4433Z" fill="#88D8F9"/>
<path d="M50.6773 5.87021C52.0661 5.87021 53.2813 6.0631 54.3229 6.44889C55.3645 6.81538 56.165 7.3169 56.7244 7.95344C57.3031 8.58999 57.7275 9.27475 57.9975 10.0077C58.2676 10.7214 58.4026 11.4834 58.4026 12.2935C58.4026 13.1037 58.2676 13.8752 57.9975 14.6082C57.7275 15.3219 57.3031 15.997 56.7244 16.6336C56.165 17.2701 55.3645 17.7813 54.3229 18.1671C53.2813 18.5336 52.0661 18.7168 50.6773 18.7168H45.4113V26.2561H42.7783V5.87021H50.6773ZM50.4168 16.2285C52.3843 16.2285 53.7635 15.8524 54.5544 15.1001C55.3645 14.3478 55.7696 13.4123 55.7696 12.2935C55.7696 11.1747 55.3645 10.2392 54.5544 9.48694C53.7635 8.73466 52.3843 8.35852 50.4168 8.35852H45.4113V16.2285H50.4168Z" fill="#88D8F9"/>
<path d="M73.3019 26.066L71.1319 20.8869H61.3233L59.1533 26.066H56.2888L64.8532 5.87021H67.602L76.1664 26.066H73.3019ZM62.3649 18.3407V18.4854H70.0903V18.3407L66.271 9.1108H66.2131L62.3649 18.3407Z" fill="#88D8F9"/>
<path d="M91.5958 10.0656C89.609 8.75395 87.4197 8.09811 85.0278 8.09811C82.6359 8.09811 80.7649 8.8311 79.4146 10.2971C78.0644 11.7631 77.3893 13.6534 77.3893 15.9681C77.3893 18.2828 78.0644 20.1732 79.4146 21.6391C80.7649 23.1051 82.6359 23.8381 85.0278 23.8381C87.4197 23.8381 89.609 23.1823 91.5958 21.8706H91.7404V24.4747C89.6572 25.7285 87.3714 26.3554 84.8831 26.3554C81.9319 26.3554 79.5014 25.4198 77.5918 23.5488C75.7015 21.6584 74.7563 19.1315 74.7563 15.9681C74.7563 12.8047 75.7015 10.2874 77.5918 8.41639C79.5014 6.52604 81.9319 5.58087 84.8831 5.58087C87.3714 5.58087 89.6572 6.20777 91.7404 7.46157V10.0656H91.5958Z" fill="#88D8F9"/>
<path d="M109.508 23.5777V24.2721C109.508 24.8894 109.672 25.4488 110 25.9503V26.066H107.281C107.011 25.6224 106.876 25.1016 106.876 24.5036V24.0406C106.876 22.266 106.692 21.0508 106.326 20.395C106.152 20.0478 105.921 19.6813 105.631 19.2955C105.033 18.5625 104.001 18.196 102.535 18.196H96.5461V26.066H93.9132V5.87021H101.957C104.58 5.87021 106.548 6.41031 107.859 7.4905C109.171 8.5707 109.827 9.98846 109.827 11.7438C109.827 12.9204 109.508 13.9813 108.872 14.9265C108.235 15.8524 107.31 16.5275 106.094 16.9519V17.0097C108.37 17.6077 109.508 19.797 109.508 23.5777ZM101.783 15.7077C103.442 15.7077 104.754 15.3798 105.718 14.724C106.702 14.0681 107.194 13.1519 107.194 11.9752C107.194 10.7986 106.769 9.90165 105.921 9.2844C105.091 8.66714 103.664 8.35852 101.638 8.35852H96.5461V15.7077H101.783Z" fill="#88D8F9"/>
</svg>
