<svg width="241" height="68" viewBox="0 0 241 68" fill="none" xmlns="http://www.w3.org/2000/svg">
<path d="M71.0186 26.033C71.0186 26.1156 71.0186 26.1981 71.0076 26.2752C71.0021 26.3247 70.9966 26.3743 70.9911 26.4238V26.4348C70.9251 26.8531 70.771 27.2659 70.5123 27.6291C70.4627 27.7007 70.4077 27.7667 70.3527 27.8328L61.4365 38.3561C60.8916 38.9945 60.1156 39.3247 59.334 39.3247C58.7066 39.3247 58.0737 39.1101 57.5563 38.6753C56.4005 37.6901 56.2574 35.9564 57.2371 34.7951L62.3281 28.7849H27.566L8.48984 61.9289H23.218V49.2041C23.218 47.685 24.4509 46.4522 25.9699 46.4522H30.6097C35.6456 46.4522 40.3899 44.3442 43.9729 40.5191C46.2185 38.1304 47.8311 35.2409 48.7447 32.0872H54.4246C53.3899 36.6664 51.1884 40.8713 47.9852 44.2837C43.3565 49.2316 37.1812 51.956 30.6097 51.956H28.7218V64.6808C28.7218 66.1998 27.489 67.4327 25.9699 67.4327H3.72904C2.74937 67.4327 1.84124 66.9098 1.34589 66.0567C0.856056 65.2091 0.856056 64.1579 1.34589 63.3048L22.5576 26.4458L1.74217 4.65622C0.97714 3.85817 0.767995 2.68586 1.2028 1.67316C1.63209 0.660457 2.62828 0 3.72904 0H30.6097C42.1622 0 51.8819 8.53641 54.4412 19.9788H48.7612C46.3836 11.6075 39.1406 5.50381 30.6097 5.50381H10.163L27.1478 23.2811H62.3116L56.8188 16.8196C56.3785 16.3023 56.1638 15.6693 56.1638 15.0419C56.1638 14.2604 56.4886 13.4843 57.1325 12.945C58.2883 11.9598 60.0275 12.0974 61.0127 13.2532L68.1346 21.63L69.6867 23.4627L70.3637 24.2553H70.3692C70.3692 24.2553 70.3747 24.2663 70.3747 24.2718C70.7214 24.6791 70.9306 25.1689 70.9966 25.6753C70.9966 25.7413 71.0076 25.8129 71.0131 25.8844C71.0186 25.934 71.0186 25.9835 71.0186 26.033Z" fill="url(#paint0_linear_1231_476)"/>
<path d="M111.44 11.7057C114.467 11.7057 117.116 12.1262 119.387 12.9671C121.657 13.7659 123.402 14.8591 124.621 16.2466C125.883 17.6341 126.808 19.1267 127.396 20.7244C127.985 22.2801 128.279 23.9408 128.279 25.7067C128.279 27.4726 127.985 29.1544 127.396 30.7522C126.808 32.3078 125.883 33.7794 124.621 35.1669C123.402 36.5544 121.657 37.6686 119.387 38.5095C117.116 39.3083 114.467 39.7078 111.44 39.7078H99.9618V56.1413H94.2226V11.7057H111.44ZM110.873 34.284C115.161 34.284 118.167 33.4641 119.891 31.8243C121.657 30.1846 122.54 28.1454 122.54 25.7067C122.54 23.2681 121.657 21.2289 119.891 19.5892C118.167 17.9494 115.161 17.1295 110.873 17.1295H99.9618V34.284H110.873Z" fill="url(#paint1_linear_1231_476)"/>
<path d="M160.756 55.727L156.026 44.4379H134.646L129.915 55.727H123.672L142.34 11.7057H148.331L166.999 55.727H160.756ZM136.916 38.8879V39.2032H153.755V38.8879L145.43 18.7693H145.304L136.916 38.8879Z" fill="url(#paint2_linear_1231_476)"/>
<path d="M200.631 20.8505C196.301 17.9915 191.528 16.5619 186.315 16.5619C181.101 16.5619 177.023 18.1596 174.08 21.3551C171.136 24.5505 169.665 28.6709 169.665 33.7163C169.665 38.7618 171.136 42.8822 174.08 46.0776C177.023 49.273 181.101 50.8708 186.315 50.8708C191.528 50.8708 196.301 49.4412 200.631 46.5822H200.947V52.2582C196.406 54.9912 191.423 56.3577 185.999 56.3577C179.567 56.3577 174.269 54.3185 170.106 50.2401C165.986 46.1197 163.926 40.6117 163.926 33.7163C163.926 26.8209 165.986 21.334 170.106 17.2557C174.269 13.1352 179.567 11.075 185.999 11.075C191.423 11.075 196.406 12.4415 200.947 15.1744V20.8505H200.631Z" fill="url(#paint3_linear_1231_476)"/>
<path d="M239.676 50.3032V51.8168C239.676 53.1622 240.033 54.3815 240.748 55.4747V55.727H234.82C234.231 54.7599 233.937 53.6247 233.937 52.3213V51.3122C233.937 47.4441 233.537 44.7952 232.738 43.3657C232.36 42.6089 231.855 41.81 231.225 40.9691C229.921 39.3714 227.672 38.5726 224.477 38.5726H211.422V55.727H205.682V11.7057H223.215C228.933 11.7057 233.222 12.883 236.081 15.2375C238.94 17.592 240.37 20.6823 240.37 24.5085C240.37 27.0732 239.676 29.3857 238.288 31.4459C236.901 33.4641 234.883 34.9357 232.234 35.8606V35.9868C237.195 37.2902 239.676 42.0623 239.676 50.3032ZM222.837 33.1487C226.453 33.1487 229.312 32.434 231.414 31.0044C233.558 29.5749 234.63 27.5778 234.63 25.013C234.63 22.4482 233.705 20.4931 231.855 19.1477C230.048 17.8023 226.936 17.1295 222.521 17.1295H211.422V33.1487H222.837Z" fill="url(#paint4_linear_1231_476)"/>
<defs>
<linearGradient id="paint0_linear_1231_476" x1="0.978516" y1="0" x2="67.9348" y2="261.568" gradientUnits="userSpaceOnUse">
<stop stop-color="#90DBF9"/>
<stop offset="1" stop-color="white"/>
</linearGradient>
<linearGradient id="paint1_linear_1231_476" x1="0.978516" y1="0" x2="67.9348" y2="261.568" gradientUnits="userSpaceOnUse">
<stop stop-color="#90DBF9"/>
<stop offset="1" stop-color="white"/>
</linearGradient>
<linearGradient id="paint2_linear_1231_476" x1="0.978516" y1="0" x2="67.9348" y2="261.568" gradientUnits="userSpaceOnUse">
<stop stop-color="#90DBF9"/>
<stop offset="1" stop-color="white"/>
</linearGradient>
<linearGradient id="paint3_linear_1231_476" x1="0.978516" y1="0" x2="67.9348" y2="261.568" gradientUnits="userSpaceOnUse">
<stop stop-color="#90DBF9"/>
<stop offset="1" stop-color="white"/>
</linearGradient>
<linearGradient id="paint4_linear_1231_476" x1="0.978516" y1="0" x2="67.9348" y2="261.568" gradientUnits="userSpaceOnUse">
<stop stop-color="#90DBF9"/>
<stop offset="1" stop-color="white"/>
</linearGradient>
</defs>
</svg>
