<svg width="215" height="207" viewBox="0 0 215 207" fill="none" xmlns="http://www.w3.org/2000/svg">
<path d="M214.664 79.7879C214.664 80.0409 214.664 80.294 214.63 80.5301C214.613 80.6819 214.597 80.8338 214.58 80.9856V81.0193C214.377 82.3013 213.905 83.5665 213.112 84.6798C212.96 84.8991 212.792 85.1015 212.623 85.3039L210.632 87.6486L205.859 93.2827L201.574 98.3432L185.296 117.556C183.626 119.513 181.248 120.525 178.852 120.525C176.929 120.525 174.989 119.867 173.404 118.535C169.861 115.515 169.423 110.202 172.425 106.643L179.46 98.3432L183.744 93.2827L188.029 88.2222H81.4874L23.0213 189.804H68.1613V150.804C68.1613 146.149 71.9399 142.37 76.5956 142.37H90.8157C106.25 142.37 120.791 135.909 131.772 124.186C138.655 116.865 143.597 108.009 146.397 98.3432H163.806C160.634 112.378 153.887 125.265 144.069 135.724C129.883 150.889 110.957 159.238 90.8157 159.238H85.0298V198.238C85.0298 202.894 81.2513 206.673 76.5956 206.673H8.43002C5.42743 206.673 2.64413 205.07 1.12597 202.455C-0.375324 199.858 -0.375324 196.636 1.12597 194.021L66.1371 81.053L2.3405 14.2707C-0.00421722 11.8248 -0.645219 8.23182 0.687391 5.12802C2.00313 2.02422 5.05633 0 8.43002 0H90.8157C126.223 0 156.012 26.163 163.856 61.2326H146.448C139.161 35.5756 116.962 16.8685 90.8157 16.8685H28.1493L80.2054 71.3537H187.978L179.375 61.2326L171.143 51.5501C169.794 49.9644 169.136 48.0246 169.136 46.1016C169.136 43.7062 170.131 41.3278 172.105 39.6747C175.647 36.6552 180.978 37.0769 183.997 40.6193L201.524 61.2326L205.825 66.2931L210.582 71.9103L212.657 74.3394H212.674C212.674 74.3394 212.69 74.3731 212.69 74.39C213.753 75.6383 214.394 77.1396 214.597 78.6915C214.597 78.8939 214.63 79.1132 214.647 79.3325C214.664 79.4843 214.664 79.6361 214.664 79.7879Z" fill="#F6FDFF" fill-opacity="0.15"/>
</svg>
