<svg width="241" height="68" viewBox="0 0 241 68" fill="none" xmlns="http://www.w3.org/2000/svg">
<path d="M71.0186 26.5418C71.0186 26.6244 71.0186 26.7069 71.0076 26.784C71.0021 26.8335 70.9966 26.883 70.9911 26.9326V26.9436C70.9251 27.3619 70.771 27.7747 70.5123 28.1379C70.4627 28.2095 70.4077 28.2755 70.3527 28.3416L61.4365 38.8648C60.8916 39.5033 60.1156 39.8335 59.334 39.8335C58.7066 39.8335 58.0737 39.6189 57.5563 39.1841C56.4005 38.1989 56.2574 36.4652 57.2371 35.3039L62.3281 29.2937H27.566L8.48984 62.4377H23.218V49.7129C23.218 48.1938 24.4509 46.961 25.9699 46.961H30.6097C35.6456 46.961 40.3899 44.853 43.9729 41.0278C46.2185 38.6392 47.8311 35.7497 48.7447 32.596H54.4246C53.3899 37.1752 51.1884 41.3801 47.9852 44.7924C43.3565 49.7404 37.1812 52.4648 30.6097 52.4648H28.7218V65.1896C28.7218 66.7086 27.489 67.9415 25.9699 67.9415H3.72904C2.74937 67.9415 1.84124 67.4186 1.34589 66.5655C0.856056 65.7179 0.856056 64.6667 1.34589 63.8136L22.5576 26.9546L1.74217 5.16501C0.97714 4.36696 0.767995 3.19465 1.2028 2.18195C1.63209 1.16925 2.62828 0.508789 3.72904 0.508789H30.6097C42.1622 0.508789 51.8819 9.0452 54.4412 20.4876H48.7612C46.3836 12.1163 39.1406 6.0126 30.6097 6.0126H10.163L27.1478 23.7899H62.3116L56.8188 17.3284C56.3785 16.8111 56.1638 16.1781 56.1638 15.5507C56.1638 14.7692 56.4886 13.9931 57.1325 13.4538C58.2883 12.4686 60.0275 12.6062 61.0127 13.762L68.1346 22.1388L69.6867 23.9715L70.3637 24.7641H70.3692C70.3692 24.7641 70.3747 24.7751 70.3747 24.7806C70.7214 25.1879 70.9306 25.6777 70.9966 26.1841C70.9966 26.2501 71.0076 26.3217 71.0131 26.3932C71.0186 26.4427 71.0186 26.4923 71.0186 26.5418Z" fill="#D6F3FF"/>
<path d="M111.44 12.2145C114.467 12.2145 117.116 12.635 119.387 13.4759C121.657 14.2747 123.402 15.3679 124.621 16.7554C125.883 18.1429 126.808 19.6355 127.396 21.2332C127.985 22.7889 128.279 24.4496 128.279 26.2155C128.279 27.9814 127.985 29.6632 127.396 31.2609C126.808 32.8166 125.883 34.2882 124.621 35.6757C123.402 37.0632 121.657 38.1774 119.387 39.0183C117.116 39.8171 114.467 40.2166 111.44 40.2166H99.9618V56.6501H94.2226V12.2145H111.44ZM110.873 34.7927C115.161 34.7927 118.167 33.9729 119.891 32.3331C121.657 30.6933 122.54 28.6542 122.54 26.2155C122.54 23.7769 121.657 21.7377 119.891 20.098C118.167 18.4582 115.161 17.6383 110.873 17.6383H99.9618V34.7927H110.873Z" fill="#D6F3FF"/>
<path d="M160.756 56.2358L156.026 44.9466H134.646L129.915 56.2358H123.672L142.34 12.2145H148.331L166.999 56.2358H160.756ZM136.916 39.3967V39.712H153.755V39.3967L145.43 19.2781H145.304L136.916 39.3967Z" fill="#D6F3FF"/>
<path d="M200.631 21.3593C196.301 18.5002 191.528 17.0707 186.315 17.0707C181.101 17.0707 177.023 18.6684 174.08 21.8639C171.136 25.0593 169.665 29.1797 169.665 34.2251C169.665 39.2705 171.136 43.391 174.08 46.5864C177.023 49.7818 181.101 51.3795 186.315 51.3795C191.528 51.3795 196.301 49.95 200.631 47.0909H200.947V52.767C196.406 55.5 191.423 56.8664 185.999 56.8664C179.567 56.8664 174.269 54.8272 170.106 50.7489C165.986 46.6284 163.926 41.1205 163.926 34.2251C163.926 27.3297 165.986 21.8428 170.106 17.7645C174.269 13.644 179.567 11.5838 185.999 11.5838C191.423 11.5838 196.406 12.9503 200.947 15.6832V21.3593H200.631Z" fill="#D6F3FF"/>
<path d="M239.676 50.8119V52.3256C239.676 53.671 240.033 54.8903 240.748 55.9835V56.2358H234.82C234.231 55.2687 233.937 54.1335 233.937 52.8301V51.821C233.937 47.9529 233.537 45.304 232.738 43.8745C232.36 43.1177 231.855 42.3188 231.225 41.4779C229.921 39.8802 227.672 39.0813 224.477 39.0813H211.422V56.2358H205.682V12.2145H223.215C228.933 12.2145 233.222 13.3918 236.081 15.7463C238.94 18.1008 240.37 21.1911 240.37 25.0172C240.37 27.582 239.676 29.8945 238.288 31.9547C236.901 33.9729 234.883 35.4444 232.234 36.3694V36.4956C237.195 37.799 239.676 42.5711 239.676 50.8119ZM222.837 33.6575C226.453 33.6575 229.312 32.9428 231.414 31.5132C233.558 30.0837 234.63 28.0865 234.63 25.5218C234.63 22.957 233.705 21.0019 231.855 19.6565C230.048 18.311 226.936 17.6383 222.521 17.6383H211.422V33.6575H222.837Z" fill="#D6F3FF"/>
</svg>
