<svg width="48" height="46" viewBox="0 0 48 46" fill="none" xmlns="http://www.w3.org/2000/svg">
<path d="M47.2644 17.8551C47.2644 17.9104 47.2644 17.9656 47.257 18.0172C47.2533 18.0504 47.2497 18.0836 47.246 18.1167V18.1241C47.2018 18.4042 47.0986 18.6806 46.9253 18.9239C46.8922 18.9718 46.8553 19.016 46.8185 19.0602L46.3836 19.5725L45.3406 20.8035L44.4044 21.9091L40.8479 26.1069C40.4831 26.5344 39.9634 26.7556 39.4401 26.7556C39.0199 26.7556 38.5961 26.6118 38.2496 26.3207C37.4757 25.661 37.3799 24.5 38.0359 23.7224L39.5727 21.9091L40.5089 20.8035L41.445 19.6978H18.1673L5.39333 41.892H15.2558V33.3711C15.2558 32.3539 16.0813 31.5283 17.0985 31.5283H20.2054C23.5776 31.5283 26.7545 30.1168 29.1538 27.5553C30.6575 25.9558 31.7374 24.0209 32.3491 21.9091H36.1526C35.4597 24.9755 33.9855 27.7912 31.8405 30.0762C28.741 33.3895 24.6059 35.2138 20.2054 35.2138H18.9413V43.7347C18.9413 44.7519 18.1157 45.5775 17.0985 45.5775H2.20536C1.54934 45.5775 0.941229 45.2274 0.609533 44.6561C0.281523 44.0885 0.281523 43.3846 0.609533 42.8133L14.8135 18.1315L0.87489 3.54055C0.362604 3.00615 0.222555 2.22114 0.51371 1.543C0.80118 0.864869 1.46826 0.422607 2.20536 0.422607H20.2054C27.9413 0.422607 34.4499 6.13883 36.1636 13.801H32.3602C30.7681 8.19535 25.9179 4.10812 20.2054 4.10812H6.51372L17.8872 16.0123H41.4339L39.5543 13.801L37.7558 11.6855C37.4609 11.3391 37.3172 10.9153 37.3172 10.4951C37.3172 9.97176 37.5347 9.45211 37.9659 9.09093C38.7398 8.43122 39.9044 8.52336 40.5641 9.29732L44.3934 13.801L45.3332 14.9067L46.3725 16.1339L46.8258 16.6646H46.8295C46.8295 16.6646 46.8332 16.672 46.8332 16.6757C47.0654 16.9484 47.2054 17.2764 47.2497 17.6155C47.2497 17.6597 47.257 17.7076 47.2607 17.7556C47.2644 17.7887 47.2644 17.8219 47.2644 17.8551Z" fill="#F2F2F2"/>
</svg>
