<svg width="25" height="25" viewBox="0 0 25 25" fill="none" xmlns="http://www.w3.org/2000/svg">
<path d="M11.0539 13.8789L15.9 9.03272M20.8574 6.0752L16.7667 19.3698C16.4002 20.5612 16.2167 21.1572 15.9005 21.3548C15.6263 21.5261 15.2867 21.5548 14.988 21.4308C14.6436 21.2879 14.3641 20.7298 13.8064 19.6145L11.2155 14.4326C11.127 14.2556 11.0827 14.1675 11.0236 14.0908C10.9711 14.0228 10.9106 13.9615 10.8425 13.909C10.7676 13.8512 10.681 13.8079 10.5119 13.7234L5.31802 11.1265C4.20271 10.5688 3.64501 10.2897 3.5021 9.94531C3.37816 9.64662 3.40643 9.30675 3.57778 9.0325C3.77537 8.71626 4.37133 8.53255 5.56313 8.16584L18.8577 4.0752C19.7947 3.7869 20.2633 3.64287 20.5798 3.75905C20.8555 3.86025 21.0728 4.07736 21.174 4.35303C21.2901 4.66935 21.146 5.13779 20.858 6.07381L20.8574 6.0752Z" stroke="#ADADAD" stroke-width="2" stroke-linecap="round" stroke-linejoin="round"/>
</svg>
