<svg width="25" height="25" viewBox="0 0 25 25" fill="none" xmlns="http://www.w3.org/2000/svg">
<path d="M3.74609 12.9736H8.74609M3.74609 12.9736C3.74609 17.9442 7.77553 21.9736 12.7461 21.9736M3.74609 12.9736C3.74609 8.00307 7.77553 3.97363 12.7461 3.97363M8.74609 12.9736H16.7461M8.74609 12.9736C8.74609 17.9442 10.537 21.9736 12.7461 21.9736M8.74609 12.9736C8.74609 8.00307 10.537 3.97363 12.7461 3.97363M16.7461 12.9736H21.7461M16.7461 12.9736C16.7461 8.00307 14.9552 3.97363 12.7461 3.97363M16.7461 12.9736C16.7461 17.9442 14.9552 21.9736 12.7461 21.9736M21.7461 12.9736C21.7461 8.00307 17.7167 3.97363 12.7461 3.97363M21.7461 12.9736C21.7461 17.9442 17.7167 21.9736 12.7461 21.9736" stroke="#313131" stroke-width="2" stroke-linecap="round" stroke-linejoin="round"/>
</svg>
