<svg width="25" height="25" viewBox="0 0 25 25" fill="none" xmlns="http://www.w3.org/2000/svg">
<path d="M3.74614 17.8136C3.74609 17.749 3.74609 17.6824 3.74609 17.6137V8.01367C3.74609 6.89357 3.74609 6.3331 3.96408 5.90527C4.15583 5.52895 4.46157 5.22321 4.83789 5.03146C5.26571 4.81348 5.82618 4.81348 6.94629 4.81348H18.5463C19.6664 4.81348 20.2262 4.81348 20.654 5.03146C21.0303 5.22321 21.3366 5.52895 21.5283 5.90527C21.7461 6.33268 21.7461 6.89247 21.7461 8.01039V17.6166C21.7461 18.1016 21.7461 18.4814 21.7283 18.7909M3.74614 17.8136C3.74691 18.8019 3.75946 19.3193 3.96408 19.7209C4.15583 20.0972 4.46157 20.404 4.83789 20.5957C5.2653 20.8135 5.82509 20.8135 6.943 20.8135H18.5497C19.6676 20.8135 20.2266 20.8135 20.654 20.5957C21.0303 20.404 21.3366 20.0972 21.5283 19.7209C21.6516 19.4789 21.7051 19.1947 21.7283 18.7909M3.74614 17.8136L8.51407 12.251L8.51548 12.2494C8.93836 11.7561 9.15015 11.509 9.40137 11.4199C9.62203 11.3417 9.86296 11.3435 10.0825 11.4248C10.3327 11.5174 10.5412 11.7674 10.958 12.2676L13.6292 15.473C14.015 15.936 14.2091 16.1689 14.4447 16.2624C14.6526 16.3448 14.8817 16.3541 15.0962 16.2908C15.3403 16.2188 15.5552 16.0039 15.9849 15.5742L16.4819 15.0771C16.9194 14.6397 17.1382 14.4211 17.3858 14.3496C17.6032 14.2869 17.8357 14.3003 18.0449 14.3867C18.2831 14.4851 18.4763 14.7259 18.8628 15.209L21.7283 18.7909M21.7283 18.7909L21.7461 18.8131M15.7461 10.8135C15.1938 10.8135 14.7461 10.3658 14.7461 9.81348C14.7461 9.26119 15.1938 8.81348 15.7461 8.81348C16.2984 8.81348 16.7461 9.26119 16.7461 9.81348C16.7461 10.3658 16.2984 10.8135 15.7461 10.8135Z" stroke="#313131" stroke-width="2" stroke-linecap="round" stroke-linejoin="round"/>
</svg>
