<svg width="48" height="49" viewBox="0 0 48 49" fill="none" xmlns="http://www.w3.org/2000/svg">
<g clip-path="url(#clip0_449_233)">
<path d="M5.6513 1.43273C5.81527 1.4314 5.97924 1.43007 6.14818 1.4287C6.69312 1.42523 7.23791 1.42717 7.78285 1.42914C8.17537 1.42779 8.5679 1.42611 8.96042 1.42414C10.0234 1.41984 11.0864 1.4204 12.1494 1.4221C13.038 1.42308 13.9266 1.42168 14.8151 1.42028C16.9119 1.41703 19.0085 1.41771 21.1052 1.42091C23.266 1.42415 25.4266 1.42112 27.5874 1.41494C29.4449 1.40982 31.3024 1.40844 33.16 1.41006C34.2683 1.411 35.3767 1.41059 36.485 1.40665C37.5274 1.40313 38.5697 1.40429 39.6121 1.40899C39.9938 1.40995 40.3755 1.40929 40.7572 1.40686C43.0899 1.39318 44.8398 1.45318 46.6642 3.09838C48.2648 4.91139 48.1089 7.10081 48.1002 9.39049C48.1015 9.75916 48.1032 10.1278 48.1051 10.4965C48.1093 11.4935 48.1088 12.4904 48.1071 13.4874C48.1061 14.3212 48.1075 15.155 48.1089 15.9889C48.1121 17.9565 48.1114 19.924 48.1083 21.8916C48.1051 23.9185 48.1081 25.9453 48.1141 27.9722C48.1191 29.7157 48.1205 31.4591 48.1189 33.2025C48.118 34.2424 48.1184 35.2823 48.1222 36.3222C48.1257 37.3 48.1245 38.2778 48.1199 39.2556C48.119 39.6135 48.1196 39.9714 48.122 40.3292C48.1361 42.6185 48.0213 44.3278 46.4533 46.105C45.241 47.216 43.9493 47.5841 42.3491 47.5673C42.1851 47.5686 42.0211 47.5699 41.8522 47.5713C41.3072 47.5748 40.7625 47.5728 40.2175 47.5709C39.825 47.5722 39.4325 47.5739 39.0399 47.5758C37.9769 47.5801 36.914 47.5796 35.8509 47.5779C34.9624 47.5769 34.0738 47.5783 33.1852 47.5797C31.0885 47.583 28.9918 47.5823 26.8951 47.5791C24.7344 47.5758 22.5737 47.5789 20.413 47.585C18.5555 47.5902 16.698 47.5915 14.8404 47.5899C13.732 47.589 12.6237 47.5894 11.5153 47.5933C10.4729 47.5969 9.43064 47.5957 8.38825 47.591C8.00656 47.59 7.62486 47.5907 7.24317 47.5931C4.90903 47.6068 3.15113 47.5529 1.33612 45.8896C-0.235614 44.1057 -0.107373 42.0919 -0.0968627 39.8226C-0.09788 39.454 -0.099216 39.0854 -0.100845 38.7167C-0.104255 37.7189 -0.102943 36.7212 -0.100561 35.7234C-0.0986571 34.6772 -0.100425 33.631 -0.101601 32.5848C-0.102964 30.8279 -0.101171 29.0711 -0.0975952 27.3142C-0.093515 25.2859 -0.094835 23.2577 -0.0989649 21.2294C-0.102374 19.4851 -0.102846 17.7409 -0.100886 15.9966C-0.0997195 14.9561 -0.0995532 13.9156 -0.102038 12.8751C-0.104212 11.8964 -0.102688 10.9179 -0.0983676 9.93925C-0.09738 9.58109 -0.0976538 9.22292 -0.0993146 8.86476C-0.107926 6.8183 -0.108052 5.07006 1.09222 3.33315C1.20751 3.22015 1.32281 3.10714 1.44159 2.99072C1.6109 2.81677 1.6109 2.81677 1.78363 2.63931C3.00112 1.7457 4.16821 1.41713 5.6513 1.43273ZM26.9013 11.8515C26.1866 12.8829 25.7299 14.2101 25.8019 15.4837C26.1006 17.1272 26.709 18.3542 27.9377 19.4517C29.1336 20.2733 30.5681 20.5961 31.9924 20.4087C33.4236 20.0624 34.6281 19.2393 35.4377 17.9802C36.1798 16.5801 36.4761 15.2099 36.0456 13.6489C35.3799 11.8537 34.4589 11.0311 32.8127 10.1445C30.6043 9.39305 28.4416 10.1452 26.9013 11.8515ZM15.3752 22.0117C14.991 22.7116 14.6494 23.4303 14.3088 24.1531C13.6513 25.5335 12.9772 26.9008 12.2734 28.2571C11.1675 30.3911 10.0909 32.5399 9.02591 34.6954C8.80333 35.1446 8.57967 35.5934 8.35501 36.0416C8.02604 36.6981 7.70051 37.3564 7.37567 38.0151C7.27492 38.2145 7.17417 38.4138 7.07036 38.6193C6.57403 39.6354 6.21516 40.393 6.37518 41.5351C6.71852 42.0359 6.92075 42.1036 7.50018 42.3008C7.94742 42.3197 8.39517 42.3266 8.8428 42.3277C9.04926 42.3285 9.04926 42.3285 9.25989 42.3294C9.72236 42.331 10.1848 42.3313 10.6473 42.3316C10.9784 42.3325 11.3094 42.3335 11.6405 42.3345C12.5408 42.337 13.4411 42.3382 14.3414 42.3391C14.9037 42.3397 15.4659 42.3404 16.0282 42.3413C17.7867 42.3439 19.5452 42.3458 21.3036 42.3465C23.3348 42.3474 25.366 42.3507 27.3971 42.3563C28.9664 42.3604 30.5357 42.3623 32.105 42.3626C33.0426 42.3628 33.9803 42.3639 34.9179 42.3673C35.7997 42.3705 36.6815 42.3709 37.5634 42.3692C37.8871 42.3691 38.2108 42.3699 38.5346 42.3718C38.9764 42.3742 39.4181 42.3731 39.8599 42.3711C40.1072 42.3714 40.3545 42.3717 40.6093 42.372C41.2945 42.2958 41.6504 42.1615 42.1877 41.7266C42.4252 41.1907 42.4252 41.1907 42.2628 40.8084C41.7997 39.9048 41.2824 39.0906 40.676 38.2812C39.926 37.2597 39.2002 36.2261 38.4963 35.1709C37.8925 34.2695 37.2883 33.369 36.6682 32.4792C36.5562 32.3181 36.4443 32.157 36.329 31.991C35.884 31.4375 35.4634 31.088 34.8049 30.8403C34.0296 30.8026 33.4644 31.1413 32.8864 31.6621C32.5743 31.9809 32.2702 32.3054 31.9689 32.6348C31.1541 33.5259 30.4318 34.2965 29.2055 34.5346C28.2543 34.4816 27.7763 34.1951 27.1291 33.4841C26.828 33.1093 26.5366 32.7337 26.2502 32.3477C26.1673 32.2371 26.0845 32.1266 25.9991 32.0128C25.5292 31.3836 25.0657 30.7499 24.6052 30.1136C23.9913 29.2681 23.3587 28.4386 22.7228 27.6103C22.0125 26.6849 21.3099 25.7548 20.623 24.811C20.4357 24.5537 20.4357 24.5537 20.2446 24.2912C20.0049 23.961 19.7661 23.6302 19.5282 23.2987C18.4437 21.6718 18.2276 20.8808 16.8635 20.7197C15.8879 20.8572 15.8001 21.3745 15.3752 22.0117Z" fill="#BDBDBD"/>
</g>
<defs>
<clipPath id="clip0_449_233">
<rect width="48" height="49" fill="white"/>
</clipPath>
</defs>
</svg>
