<svg width="25" height="24" viewBox="0 0 25 24" fill="none" xmlns="http://www.w3.org/2000/svg">
<path fill-rule="evenodd" clip-rule="evenodd" d="M7.58476 7C8.04803 4.71776 10.0658 3 12.4847 3C14.9037 3 16.9215 4.71776 17.3847 7L18.3235 7C18.8506 6.99998 19.3052 6.99997 19.6796 7.03057C20.0749 7.06289 20.4679 7.13424 20.8461 7.32698C21.4095 7.61405 21.8698 8.07224 22.158 8.63781C22.3507 9.016 22.4219 9.40906 22.4542 9.80396C22.4848 10.1781 22.4848 10.6323 22.4847 11.1584V16.8421C22.4848 17.3682 22.4848 17.8221 22.4542 18.1962C22.4219 18.591 22.3506 18.9838 22.158 19.3619C21.8701 19.9269 21.4101 20.3859 20.8461 20.6732C20.4681 20.8659 20.0753 20.9372 19.6804 20.9695C19.3064 21 18.8524 21 18.3263 21H6.64313C6.11704 21 5.66289 21 5.28871 20.9695C4.8938 20.9372 4.50074 20.8659 4.12255 20.6732C3.5575 20.3853 3.09906 19.9258 2.81172 19.3619C2.61895 18.9835 2.54762 18.5904 2.51531 18.1951C2.48471 17.8206 2.48472 17.3659 2.48474 16.8388V11.1617C2.48472 10.6345 2.48471 10.1796 2.51531 9.80498C2.5476 9.40962 2.6189 9.01624 2.81172 8.63781C3.09934 8.07332 3.55806 7.6146 4.12255 7.32698C4.50099 7.13416 4.89436 7.06286 5.28973 7.03057C5.66439 6.99997 6.11924 6.99998 6.64641 7L7.58476 7ZM9.65545 7H15.314C14.9022 5.83481 13.791 5 12.4847 5C11.1785 5 10.0673 5.83481 9.65545 7ZM5.45254 9.02393C5.18069 9.04613 5.07992 9.08383 5.03053 9.10899C4.84237 9.20487 4.68961 9.35763 4.59374 9.54579C4.56857 9.59517 4.53088 9.69595 4.50867 9.9678C4.48552 10.2513 4.48474 10.6237 4.48474 11.2002V16.8002C4.48474 17.3768 4.48552 17.7489 4.50867 18.0322C4.53086 18.3037 4.56852 18.4044 4.59374 18.4539C4.6899 18.6426 4.84293 18.7956 5.03053 18.8912C5.07975 18.9163 5.18028 18.9539 5.4516 18.9761C5.73454 18.9992 6.1062 19 6.68165 19H18.2878C18.8633 19 19.2347 18.9992 19.5174 18.9761C19.7884 18.9539 19.8888 18.9164 19.9381 18.8912C20.1268 18.7951 20.2804 18.6415 20.376 18.4539C20.4011 18.4046 20.4387 18.3041 20.4608 18.0332C20.484 17.7505 20.4847 17.379 20.4847 16.8036V11.1969C20.4847 10.6215 20.484 10.2498 20.4608 9.96686C20.4387 9.69554 20.401 9.595 20.376 9.54579C20.2806 9.35871 20.1274 9.20542 19.9381 9.10899C19.8886 9.08374 19.788 9.0461 19.5167 9.02392C19.2336 9.00078 18.8615 9 18.2849 9H6.68494C6.10839 9 5.736 9.00078 5.45254 9.02393Z" fill="#4FCFF5"/>
</svg>
