<svg width="25" height="24" viewBox="0 0 25 24" fill="none" xmlns="http://www.w3.org/2000/svg">
<path d="M12.4847 9.2998V19.4998M12.4847 9.2998C12.4847 7.61965 12.4847 6.77992 12.8117 6.13818C13.0993 5.5737 13.558 5.1146 14.1224 4.82698C14.7642 4.5 15.6044 4.5 17.2845 4.5H19.8845C20.4446 4.5 20.7248 4.5 20.9387 4.60899C21.1269 4.70487 21.2795 4.85774 21.3754 5.0459C21.4844 5.25981 21.4847 5.54004 21.4847 6.1001V14.9001C21.4847 15.4601 21.4844 15.7398 21.3754 15.9537C21.2795 16.1419 21.1272 16.2952 20.9391 16.3911C20.7254 16.5 20.4457 16.5 19.8868 16.5H17.0541C16.1149 16.5 15.6444 16.5 15.2181 16.6295C14.8408 16.7441 14.4904 16.9317 14.1857 17.1821C13.8416 17.465 13.5808 17.8557 13.0598 18.6372L12.4847 19.4998M12.4847 9.2998C12.4847 7.61965 12.4846 6.77992 12.1576 6.13818C11.87 5.5737 11.411 5.1146 10.8465 4.82698C10.2048 4.5 9.36451 4.5 7.68435 4.5H5.08435C4.5243 4.5 4.24455 4.5 4.03064 4.60899C3.84248 4.70487 3.68961 4.85774 3.59373 5.0459C3.48474 5.25981 3.48474 5.54004 3.48474 6.1001V14.9001C3.48474 15.4601 3.48474 15.7398 3.59373 15.9537C3.68961 16.1419 3.84248 16.2952 4.03064 16.3911C4.24434 16.5 4.52375 16.5 5.08271 16.5H7.91547C8.85468 16.5 9.32416 16.5 9.75043 16.6295C10.1278 16.7441 10.4799 16.9317 10.7845 17.1821C11.1273 17.4638 11.3865 17.8526 11.9032 18.6277L12.4847 19.4998" stroke="#4FCFF5" stroke-width="2" stroke-linecap="round" stroke-linejoin="round"/>
</svg>
