<svg width="33" height="32" viewBox="0 0 33 32" fill="none" xmlns="http://www.w3.org/2000/svg">
<rect x="0.589111" y="0.5" width="31" height="31" rx="15.5" stroke="#313131"/>
<path fill-rule="evenodd" clip-rule="evenodd" d="M10.9554 8.96558H21.2231C21.6866 8.96556 22.0863 8.96555 22.4155 8.99246C22.7631 9.02088 23.1086 9.08362 23.4412 9.25309C23.9366 9.50551 24.3414 9.9084 24.5948 10.4057C24.7642 10.7382 24.8268 11.0839 24.8552 11.4311C24.8821 11.7601 24.8821 12.1595 24.8821 12.6221V19.3784C24.8821 19.8409 24.8821 20.2401 24.8552 20.569C24.8268 20.9162 24.7641 21.2616 24.5948 21.594C24.3416 22.0908 23.9371 22.4944 23.4412 22.7471C23.1088 22.9165 22.7634 22.9792 22.4162 23.0076C22.0874 23.0345 21.6882 23.0344 21.2256 23.0344H10.9525C10.4899 23.0344 10.0906 23.0345 9.76156 23.0076C9.41431 22.9792 9.06869 22.9165 8.73615 22.7471C8.2393 22.4939 7.83619 22.0899 7.58354 21.594C7.41403 21.2613 7.35131 20.9157 7.3229 20.5681C7.29599 20.2388 7.29601 19.8389 7.29602 19.3754V12.625C7.29601 12.1614 7.29599 11.7615 7.3229 11.432C7.3513 11.0844 7.41399 10.7385 7.58354 10.4057C7.83644 9.90935 8.2398 9.506 8.73615 9.25309C9.06891 9.08354 9.4148 9.02085 9.76245 8.99246C10.0919 8.96555 10.4919 8.96556 10.9554 8.96558ZM10.5152 10.7253L14.955 14.0781C14.9558 14.0787 14.9567 14.0793 14.9575 14.08C15.6063 14.5555 15.7456 14.6388 15.8685 14.6706C16.0129 14.7079 16.165 14.7079 16.3094 14.6706C16.4327 14.6387 16.5731 14.5546 17.2256 14.0763L17.3702 13.9654C17.4684 13.8902 17.6107 13.7812 17.7875 13.6461C18.141 13.3758 18.6324 13.0008 19.1842 12.5814C19.9554 11.9953 20.847 11.3209 21.645 10.7251C21.511 10.7243 21.3603 10.7242 21.1892 10.7242H10.9893C10.8104 10.7242 10.6538 10.7243 10.5152 10.7253ZM23.116 11.8226C22.2315 12.4788 21.1593 13.2892 20.2483 13.9816C19.6982 14.3997 19.2081 14.7737 18.8556 15.0432C18.6793 15.178 18.5375 15.2865 18.4397 15.3614L18.2891 15.4769L18.2732 15.4888C18.238 15.5146 18.2032 15.5403 18.1686 15.5657C17.6771 15.9273 17.2452 16.245 16.7497 16.3731C16.3165 16.4852 15.8614 16.4852 15.4281 16.3731C14.9329 16.2451 14.5019 15.928 14.0113 15.567C13.9768 15.5417 13.942 15.5161 13.9069 15.4903C13.8999 15.4852 13.893 15.48 13.8861 15.4746L9.06188 11.8315C9.05495 12.0438 9.05463 12.3085 9.05463 12.6588V19.3415C9.05463 19.8485 9.05531 20.1758 9.07567 20.4248C9.09518 20.6636 9.1283 20.7521 9.15047 20.7956C9.23502 20.9616 9.36959 21.0961 9.53454 21.1802C9.57782 21.2022 9.66622 21.2353 9.90479 21.2548C10.1536 21.2751 10.4804 21.2758 10.9864 21.2758H21.1917C21.6977 21.2758 22.0243 21.2751 22.2729 21.2548C22.5112 21.2353 22.5995 21.2023 22.6429 21.1802C22.8088 21.0956 22.9438 20.9606 23.0278 20.7956C23.0499 20.7522 23.083 20.6639 23.1025 20.4257C23.1228 20.1771 23.1235 19.8505 23.1235 19.3445V12.6559C23.1235 12.302 23.1231 12.0358 23.116 11.8226Z" fill="#313131"/>
</svg>
