<svg width="25" height="24" viewBox="0 0 25 24" fill="none" xmlns="http://www.w3.org/2000/svg">
<path fill-rule="evenodd" clip-rule="evenodd" d="M8.48474 2C9.03703 2 9.48474 2.44772 9.48474 3V4H15.4847V3C15.4847 2.44772 15.9325 2 16.4847 2C17.037 2 17.4847 2.44772 17.4847 3V4.00003C17.9438 4.00031 18.3439 4.00313 18.6796 4.03057C19.0749 4.06289 19.4679 4.13424 19.8461 4.32698C20.4095 4.61405 20.8698 5.07224 21.158 5.63781C21.3507 6.016 21.4219 6.40906 21.4542 6.80396C21.4848 7.17815 21.4848 7.6323 21.4847 8.15839V17.8421C21.4848 18.3682 21.4848 18.8221 21.4542 19.1962C21.4219 19.591 21.3506 19.9838 21.158 20.3619C20.8701 20.9269 20.4101 21.3859 19.8461 21.6732C19.4681 21.8659 19.0753 21.9372 18.6804 21.9695C18.3064 22 17.8524 22 17.3263 22H7.64313C7.11704 22 6.66289 22 6.28871 21.9695C5.8938 21.9372 5.50074 21.8659 5.12255 21.6732C4.5575 21.3853 4.09906 20.9258 3.81172 20.3619C3.61895 19.9835 3.54762 19.5904 3.51531 19.1951C3.48471 18.8206 3.48472 18.3659 3.48474 17.8388V8.16168C3.48472 7.6345 3.48471 7.17965 3.51531 6.80498C3.5476 6.40962 3.6189 6.01624 3.81172 5.63781C4.09934 5.07332 4.55806 4.6146 5.12255 4.32698C5.50099 4.13416 5.89436 4.06286 6.28973 4.03057C6.62553 4.00314 7.02576 4.00031 7.48474 4.00003V3C7.48474 2.44772 7.93246 2 8.48474 2ZM6.45254 6.02393C6.18069 6.04613 6.07992 6.08383 6.03053 6.10899C5.84237 6.20487 5.68961 6.35763 5.59374 6.54579C5.56857 6.59517 5.53088 6.69595 5.50867 6.9678C5.48832 7.21702 5.48526 7.53498 5.48482 8H19.4847C19.4842 7.53429 19.4812 7.21614 19.4608 6.96686C19.4387 6.69554 19.401 6.595 19.376 6.54579C19.2806 6.35871 19.1274 6.20542 18.9381 6.10899C18.8886 6.08374 18.788 6.0461 18.5167 6.02392C18.2336 6.00078 17.8615 6 17.2849 6H7.68494C7.10839 6 6.736 6.00078 6.45254 6.02393ZM19.4847 10H5.48474V17.8002C5.48474 18.3768 5.48552 18.7489 5.50867 19.0322C5.53086 19.3037 5.56852 19.4044 5.59374 19.4539C5.6899 19.6426 5.84293 19.7956 6.03053 19.8912C6.07975 19.9163 6.18028 19.9539 6.4516 19.9761C6.73454 19.9992 7.1062 20 7.68165 20H17.2878C17.8633 20 18.2347 19.9992 18.5174 19.9761C18.7884 19.9539 18.8888 19.9164 18.9381 19.8912C19.1268 19.7951 19.2804 19.6415 19.376 19.4539C19.4011 19.4046 19.4387 19.3041 19.4608 19.0332C19.484 18.7505 19.4847 18.379 19.4847 17.8036V10ZM8.98474 15C8.98474 14.4477 9.43246 14 9.98474 14H14.9847C15.537 14 15.9847 14.4477 15.9847 15C15.9847 15.5523 15.537 16 14.9847 16H9.98474C9.43246 16 8.98474 15.5523 8.98474 15Z" fill="#4FCFF5"/>
</svg>
