<svg width="33" height="32" viewBox="0 0 33 32" fill="none" xmlns="http://www.w3.org/2000/svg">
<rect x="0.589111" y="0.5" width="31" height="31" rx="15.5" stroke="#313131"/>
<path fill-rule="evenodd" clip-rule="evenodd" d="M11.0908 10.3725C10.7431 10.3725 10.4614 10.6542 10.4614 11.0017C10.4614 16.8701 15.2189 21.6275 21.0873 21.6275C21.4347 21.6275 21.7165 21.3458 21.7165 20.9981L21.7169 19.0628C21.7169 19.0627 21.7169 19.0628 21.7169 19.0628C21.7168 18.7752 21.5418 18.5166 21.2748 18.4097C21.2748 18.4097 21.2749 18.4098 21.2748 18.4097L19.4202 17.6682C19.1802 17.5722 18.907 17.6154 18.7087 17.7807L18.2303 18.1797C17.392 18.8783 16.1583 18.8231 15.3863 18.0512L14.0385 16.7021C14.0385 16.7021 14.0386 16.7022 14.0385 16.7021C13.2675 15.9308 13.2097 14.698 13.9088 13.8591L14.3079 13.3805C14.3079 13.3805 14.308 13.3804 14.3079 13.3805C14.4736 13.1815 14.517 12.9081 14.4213 12.6688L13.6791 10.8148C13.5722 10.5478 13.3135 10.3725 13.0259 10.3725H11.0908ZM9.05457 11.0017C9.05457 9.87701 9.96634 8.96558 11.0908 8.96558H13.0259C13.8888 8.96558 14.6648 9.49094 14.9852 10.2921L15.7274 12.1461C16.0156 12.8664 15.8846 13.6861 15.3887 14.2811L14.9896 14.7597C14.7572 15.0387 14.7756 15.4496 15.0334 15.7073L16.3811 17.0563C16.6382 17.3132 17.0498 17.3321 17.3294 17.0991L17.8078 16.7001C18.4034 16.2038 19.2231 16.0741 19.9426 16.3619C19.9426 16.3618 19.9426 16.3619 19.9426 16.3619L21.7972 17.1034C22.5984 17.4239 23.1237 18.1999 23.1237 19.0628L23.1234 20.9981C23.1234 20.998 23.1234 20.9981 23.1234 20.9981C23.1233 22.1225 22.212 23.0344 21.0873 23.0344C14.4419 23.0344 9.05457 17.6471 9.05457 11.0017Z" fill="#313131"/>
</svg>
