<svg width="25" height="24" viewBox="0 0 25 24" fill="none" xmlns="http://www.w3.org/2000/svg">
<path fill-rule="evenodd" clip-rule="evenodd" d="M12.4848 4.12695C10.89 4.12695 9.36259 4.75373 8.23818 5.86579C7.11413 6.97749 6.48474 8.48255 6.48474 10.0498C6.48474 12.1853 7.42235 14.1977 8.65364 15.9097C9.87989 17.6146 11.339 18.9395 12.2415 19.6784C12.3107 19.7352 12.3617 19.7769 12.4064 19.8121C12.4428 19.8407 12.4675 19.859 12.4848 19.8712C12.5021 19.8592 12.5267 19.8409 12.563 19.8123C12.6077 19.7772 12.6587 19.7354 12.7282 19.6786C13.6306 18.9397 15.0897 17.6148 16.3159 15.91C17.5471 14.1981 18.4847 12.1857 18.4847 10.0502C18.4847 8.48289 17.8552 6.97731 16.7313 5.86568C15.6069 4.75363 14.0796 4.12695 12.4848 4.12695ZM6.8318 4.44378C8.3329 2.95918 10.3666 2.12695 12.4848 2.12695C14.603 2.12695 16.6365 2.95906 18.1376 4.44367C19.6392 5.9287 20.4847 7.94538 20.4847 10.0502C20.4847 12.7666 19.3001 15.1861 17.9395 17.0778C16.5739 18.9764 14.9715 20.4267 13.9952 21.226C13.9789 21.2394 13.9622 21.2532 13.9451 21.2673C13.7237 21.4499 13.4356 21.6876 13.0267 21.8028C12.6933 21.8966 12.2759 21.8966 11.9424 21.8028C11.5341 21.6878 11.2448 21.4489 11.0252 21.2677C11.0079 21.2534 10.9909 21.2394 10.9744 21.2259C9.99814 20.4265 8.39566 18.9762 7.02999 17.0775C5.66937 15.1857 4.48474 12.7662 4.48474 10.0498C4.48474 7.94483 5.33035 5.92874 6.8318 4.44378ZM12.4847 8.12695C11.9325 8.12695 11.4847 8.57467 11.4847 9.12695C11.4847 9.67924 11.9325 10.127 12.4847 10.127C13.037 10.127 13.4847 9.67924 13.4847 9.12695C13.4847 8.57467 13.037 8.12695 12.4847 8.12695ZM9.48474 9.12695C9.48474 7.4701 10.8279 6.12695 12.4847 6.12695C14.1416 6.12695 15.4847 7.4701 15.4847 9.12695C15.4847 10.7838 14.1416 12.127 12.4847 12.127C10.8279 12.127 9.48474 10.7838 9.48474 9.12695Z" fill="#4FCFF5"/>
</svg>
