<svg width="33" height="32" viewBox="0 0 33 32" fill="none" xmlns="http://www.w3.org/2000/svg">
<rect x="0.589111" y="0.5" width="31" height="31" rx="15.5" stroke="#313131"/>
<path fill-rule="evenodd" clip-rule="evenodd" d="M10.5051 15.2966H12.5883C12.6608 13.7462 12.9714 12.3294 13.4567 11.2376C13.4991 11.1422 13.5431 11.0486 13.5888 10.957C11.9352 11.7785 10.7429 13.3893 10.5051 15.2966ZM16.0891 8.96558C12.2041 8.96558 9.05469 12.115 9.05469 16C9.05469 19.885 12.2041 23.0344 16.0891 23.0344C19.9741 23.0344 23.1235 19.885 23.1235 16C23.1235 12.115 19.9741 8.96558 16.0891 8.96558ZM16.0891 10.3725C15.9295 10.3725 15.7245 10.4423 15.4788 10.6761C15.2295 10.9134 14.973 11.2899 14.7423 11.809C14.3473 12.6977 14.0684 13.9132 13.9968 15.2966H18.1814C18.1099 13.9132 17.8309 12.6977 17.4359 11.809C17.2052 11.2899 16.9487 10.9134 16.6994 10.6761C16.4537 10.4423 16.2487 10.3725 16.0891 10.3725ZM19.5899 15.2966C19.5174 13.7462 19.2068 12.3294 18.7216 11.2376C18.6792 11.1422 18.6351 11.0486 18.5894 10.957C20.243 11.7785 21.4353 13.3893 21.6731 15.2966H19.5899ZM18.1814 16.7034H13.9968C14.0684 18.0868 14.3473 19.3023 14.7423 20.191C14.973 20.7101 15.2295 21.0866 15.4788 21.3239C15.7245 21.5577 15.9295 21.6275 16.0891 21.6275C16.2487 21.6275 16.4537 21.5577 16.6994 21.3239C16.9487 21.0866 17.2052 20.7101 17.4359 20.191C17.8309 19.3023 18.1099 18.0868 18.1814 16.7034ZM18.5894 21.043C18.6351 20.9514 18.6792 20.8578 18.7216 20.7624C19.2068 19.6706 19.5174 18.2539 19.5899 16.7034H21.6731C21.4353 18.6107 20.243 20.2215 18.5894 21.043ZM13.5888 21.043C13.5431 20.9514 13.4991 20.8578 13.4567 20.7624C12.9714 19.6706 12.6608 18.2539 12.5883 16.7034H10.5051C10.7429 18.6107 11.9352 20.2215 13.5888 21.043Z" fill="#313131"/>
</svg>
