<svg width="25" height="24" viewBox="0 0 25 24" fill="none" xmlns="http://www.w3.org/2000/svg">
<path fill-rule="evenodd" clip-rule="evenodd" d="M6.64642 5H18.3235C18.8506 4.99998 19.3052 4.99997 19.6796 5.03058C20.0749 5.06289 20.4679 5.13424 20.8461 5.32698C21.4095 5.61405 21.8698 6.07224 22.158 6.63781C22.3507 7.016 22.4219 7.40906 22.4542 7.80397C22.4848 8.17815 22.4848 8.6323 22.4847 9.15839V14.8416C22.4848 15.3677 22.4848 15.8217 22.4542 16.1957C22.4219 16.5905 22.3506 16.9833 22.158 17.3614C21.8704 17.9259 21.4106 18.3856 20.8461 18.6732C20.4681 18.8659 20.0753 18.9372 19.6804 18.9695C19.3064 19 18.8524 19 18.3264 19L6.48398 19C6.00009 18.9996 5.57481 18.9971 5.21622 18.9631C4.84615 18.928 4.47819 18.8544 4.12255 18.6732C3.55698 18.3851 3.09879 17.9248 2.81172 17.3614C2.61899 16.9831 2.54763 16.5902 2.51532 16.1949C2.48471 15.8205 2.48472 15.3659 2.48474 14.8388V9.16168C2.48472 8.63451 2.48471 8.17965 2.51531 7.80499C2.5476 7.40962 2.6189 7.01625 2.81172 6.63781C3.09934 6.07332 3.55806 5.6146 4.12255 5.32698C4.50099 5.13416 4.89436 5.06286 5.28973 5.03057C5.66439 4.99997 6.11925 4.99998 6.64642 5ZM5.45254 7.02393C5.18069 7.04614 5.07992 7.08383 5.03053 7.109C4.84237 7.20487 4.68961 7.35763 4.59374 7.54579C4.56857 7.59517 4.53088 7.69595 4.50867 7.9678C4.48552 8.25126 4.48474 8.62365 4.48474 9.2002V14.8002C4.48474 15.3768 4.48552 15.7488 4.50867 16.0319C4.53085 16.3032 4.56849 16.4039 4.59374 16.4534C4.69016 16.6427 4.84345 16.7959 5.03053 16.8912C5.07643 16.9146 5.16843 16.9496 5.40502 16.972C5.49439 16.9805 5.59415 16.9864 5.7088 16.9906C5.9481 16.475 6.35481 16.0563 6.80875 15.7537C7.53742 15.268 8.48644 15 9.48474 15C10.4831 15 11.4321 15.268 12.1608 15.7537C12.6175 16.0582 13.0263 16.4801 13.265 17H18.2878C18.8633 17 19.2347 16.9992 19.5174 16.9761C19.7884 16.954 19.8888 16.9164 19.9381 16.8912C20.1263 16.7953 20.2801 16.6416 20.376 16.4534C20.4011 16.4041 20.4387 16.3036 20.4608 16.0327C20.484 15.75 20.4847 15.3786 20.4847 14.8031V9.19691C20.4847 8.62146 20.484 8.2498 20.4608 7.96686C20.4387 7.69554 20.401 7.59501 20.376 7.54579C20.2806 7.35871 20.1274 7.20542 19.9381 7.109C19.8886 7.08375 19.788 7.04611 19.5167 7.02393C19.2336 7.00078 18.8615 7 18.2849 7H6.68494C6.10839 7 5.736 7.00078 5.45254 7.02393ZM9.48474 10C8.93246 10 8.48474 10.4477 8.48474 11C8.48474 11.5523 8.93246 12 9.48474 12C10.037 12 10.4847 11.5523 10.4847 11C10.4847 10.4477 10.037 10 9.48474 10ZM6.48474 11C6.48474 9.34315 7.82789 8 9.48474 8C11.1416 8 12.4847 9.34315 12.4847 11C12.4847 12.6569 11.1416 14 9.48474 14C7.82789 14 6.48474 12.6569 6.48474 11ZM14.4847 11C14.4847 10.4477 14.9325 10 15.4847 10H18.4847C19.037 10 19.4847 10.4477 19.4847 11C19.4847 11.5523 19.037 12 18.4847 12H15.4847C14.9325 12 14.4847 11.5523 14.4847 11ZM13.4847 14C13.4847 13.4477 13.9325 13 14.4847 13H18.4847C19.037 13 19.4847 13.4477 19.4847 14C19.4847 14.5523 19.037 15 18.4847 15H14.4847C13.9325 15 13.4847 14.5523 13.4847 14Z" fill="#4FCFF5"/>
</svg>
