<svg width="21" height="18" viewBox="0 0 21 18" fill="none" xmlns="http://www.w3.org/2000/svg">
<path d="M10.7637 6.64551V16.8455M10.7637 6.64551C10.7637 4.96535 10.7637 4.12562 11.0907 3.48389C11.3783 2.9194 11.8369 2.4603 12.4014 2.17268C13.0431 1.8457 13.8833 1.8457 15.5635 1.8457H18.1635C18.7235 1.8457 19.0038 1.8457 19.2177 1.9547C19.4058 2.05057 19.5584 2.20344 19.6543 2.3916C19.7633 2.60551 19.7637 2.88575 19.7637 3.4458V12.2458C19.7637 12.8059 19.7633 13.0855 19.6543 13.2994C19.5584 13.4876 19.4062 13.6409 19.218 13.7368C19.0043 13.8457 18.7247 13.8457 18.1657 13.8457H15.333C14.3938 13.8457 13.9233 13.8457 13.4971 13.9752C13.1197 14.0898 12.7693 14.2774 12.4647 14.5278C12.1205 14.8107 11.8597 15.2014 11.3387 15.9829L10.7637 16.8455M10.7637 6.64551C10.7637 4.96535 10.7635 4.12562 10.4365 3.48389C10.1489 2.9194 9.68994 2.4603 9.12545 2.17268C8.48372 1.8457 7.64344 1.8457 5.96328 1.8457H3.36328C2.80323 1.8457 2.52348 1.8457 2.30957 1.9547C2.12141 2.05057 1.96854 2.20344 1.87267 2.3916C1.76367 2.60551 1.76367 2.88575 1.76367 3.4458V12.2458C1.76367 12.8059 1.76367 13.0855 1.87267 13.2994C1.96854 13.4876 2.12141 13.6409 2.30957 13.7368C2.52327 13.8457 2.80268 13.8457 3.36164 13.8457H6.1944C7.13361 13.8457 7.60309 13.8457 8.02936 13.9752C8.40673 14.0898 8.7588 14.2774 9.06348 14.5278C9.40624 14.8096 9.6654 15.1983 10.1822 15.9734L10.7637 16.8455" stroke="#313131" stroke-width="1.875" stroke-linecap="round" stroke-linejoin="round"/>
</svg>
