<svg width="25" height="25" viewBox="0 0 25 25" fill="none" xmlns="http://www.w3.org/2000/svg">
<path d="M14.4951 21.7929L19.9554 18.6404C20.5382 18.3039 20.8291 18.1356 21.0411 17.9002C21.2286 17.6919 21.3704 17.4465 21.457 17.18C21.5547 16.8794 21.5547 16.5435 21.5547 15.8736V9.55948C21.5547 8.88957 21.5547 8.55374 21.457 8.25318C21.3704 7.98662 21.2286 7.74108 21.0411 7.53279C20.83 7.29841 20.5398 7.13085 19.9619 6.79722L14.4941 3.64038C13.9113 3.30386 13.6204 3.13593 13.3105 3.07007C13.0364 3.0118 12.753 3.0118 12.4788 3.07007C12.169 3.13593 11.8771 3.30385 11.2942 3.64038L5.83296 6.79345C5.25076 7.12959 4.95988 7.29753 4.74805 7.53279C4.5605 7.74108 4.41887 7.98662 4.33226 8.25318C4.23438 8.55444 4.23438 8.89115 4.23438 9.56421V15.8692C4.23438 16.5422 4.23438 16.8787 4.33226 17.18C4.41887 17.4465 4.5605 17.6919 4.74805 17.9002C4.96001 18.1356 5.2511 18.3039 5.83398 18.6404L11.2942 21.7929C11.8771 22.1294 12.169 22.2974 12.4788 22.3633C12.753 22.4215 13.0364 22.4215 13.3105 22.3632C13.6204 22.2974 13.9122 22.1294 14.4951 21.7929Z" stroke="#313131" stroke-width="2" stroke-linecap="round" stroke-linejoin="round"/>
<path d="M9.89453 12.7166C9.89453 14.3734 11.2377 15.7166 12.8945 15.7166C14.5514 15.7166 15.8945 14.3734 15.8945 12.7166C15.8945 11.0597 14.5514 9.71656 12.8945 9.71656C11.2377 9.71656 9.89453 11.0597 9.89453 12.7166Z" stroke="#313131" stroke-width="2" stroke-linecap="round" stroke-linejoin="round"/>
</svg>
