<svg width="21" height="18" viewBox="0 0 21 18" fill="none" xmlns="http://www.w3.org/2000/svg">
<path d="M1.13867 0.845703C1.69096 0.845703 2.13867 1.29342 2.13867 1.8457V9.71089L4.35189 7.86655L4.35821 7.86138L4.37969 7.84348C4.70722 7.57052 4.99153 7.33357 5.24172 7.15291C5.50654 6.96168 5.78823 6.79178 6.12224 6.68752C6.79356 6.47796 7.51647 6.51122 8.16541 6.78043C8.48887 6.91462 8.75424 7.10945 9.00106 7.32424C9.23423 7.52714 9.49646 7.78938 9.79882 8.09176L9.79884 8.09178L9.828 8.12094C10.1647 8.4576 10.3814 8.6735 10.5589 8.82769C10.7286 8.97514 10.8087 9.01728 10.8521 9.03495C11.0715 9.12432 11.3172 9.13254 11.5445 9.05713C11.5898 9.04211 11.6733 9.00498 11.8535 8.86844C12.0419 8.72571 12.274 8.52348 12.6345 8.20809L18.4801 3.09313C18.8958 2.72944 19.5275 2.77156 19.8912 3.1872C20.2549 3.60284 20.2128 4.2346 19.7972 4.59828L13.931 9.73117C13.6 10.0208 13.3137 10.2714 13.0613 10.4626C12.7956 10.6639 12.5123 10.8433 12.1742 10.9554C11.4972 11.18 10.7606 11.1573 10.0976 10.8872C9.76811 10.7529 9.49799 10.5553 9.24735 10.3376C9.01037 10.1318 8.7439 9.86529 8.43679 9.55816L8.40733 9.5287C8.0758 9.19716 7.86268 8.98484 7.68818 8.83299C7.52152 8.68797 7.44253 8.64581 7.39905 8.62778C7.1823 8.53786 6.94153 8.52695 6.7182 8.59666C6.67355 8.6106 6.59129 8.64531 6.41257 8.77437C6.22546 8.90948 5.9946 9.10113 5.63544 9.40043L5.62913 9.40559L2.13867 12.3143V13.6457C2.13867 14.2223 2.13945 14.5944 2.1626 14.8777C2.18479 15.1491 2.22245 15.2498 2.24767 15.2993C2.34399 15.4883 2.49717 15.6415 2.68446 15.7369C2.73368 15.762 2.83421 15.7996 3.10553 15.8218C3.38847 15.8449 3.76014 15.8457 4.33558 15.8457H19.1389C19.6912 15.8457 20.1389 16.2934 20.1389 16.8457C20.1389 17.398 19.6912 17.8457 19.1389 17.8457H4.29707C3.77098 17.8457 3.31682 17.8457 2.94264 17.8152C2.54773 17.7829 2.15467 17.7116 1.77648 17.5189C1.21112 17.2309 0.752828 16.7709 0.465654 16.2073C0.272888 15.829 0.201554 15.4359 0.169245 15.0406C0.13864 14.6661 0.138655 14.2114 0.138672 13.6843V13.6843V1.8457C0.138672 1.29342 0.586389 0.845703 1.13867 0.845703Z" fill="#313131"/>
</svg>
