<svg width="25" height="25" viewBox="0 0 25 25" fill="none" xmlns="http://www.w3.org/2000/svg">
<path d="M21.403 13.442C21.7676 12.8343 21.9702 12.1861 21.9702 11.4163C21.9702 9.63368 20.4307 7.9726 18.486 7.9726H16.987C17.1895 7.44592 17.3516 6.8382 17.3516 6.06844C17.3516 3.1109 15.8121 1.81445 13.5028 1.81445C10.9909 1.81445 11.1529 5.66329 10.5857 6.23049C9.65392 7.16232 8.56004 8.94494 7.79027 9.59316H3.81989C3.09064 9.59316 2.52344 10.2009 2.52344 10.8896V20.613C2.52344 21.3423 3.09064 21.9095 3.81989 21.9095H6.41279C6.97999 21.9095 7.50667 21.5043 7.62822 20.9776C9.45135 21.0181 10.7073 22.5577 14.8397 22.5577C15.1638 22.5577 15.488 22.5577 15.7716 22.5577C18.8911 22.5577 20.2686 20.9776 20.3091 18.7088C20.8763 17.9796 21.1599 16.9667 21.0384 15.9944C21.4435 15.2651 21.5651 14.3738 21.403 13.442ZM18.8911 15.6298C19.4178 16.4806 18.9317 17.615 18.3239 17.9796C18.6481 19.9243 17.5947 20.613 16.1767 20.613H14.6372C11.7607 20.613 9.85649 19.114 7.70924 19.114V11.5378H8.11439C9.2893 11.5378 10.8693 8.70185 11.9632 7.60797C13.0976 6.47358 12.733 4.5289 13.5028 3.75913C15.4069 3.75913 15.4069 5.0961 15.4069 6.06844C15.4069 7.64849 14.2725 8.37774 14.2725 9.91728H18.486C19.3368 9.91728 19.985 10.687 20.0255 11.4568C20.0255 12.1861 19.4989 12.9558 19.0937 12.9558C19.6609 13.5635 19.7825 14.8195 18.8911 15.6298ZM6.08868 19.3166C6.08868 19.8838 5.64302 20.2889 5.11634 20.2889C4.54914 20.2889 4.144 19.8838 4.144 19.3166C4.144 18.7899 4.54914 18.3442 5.11634 18.3442C5.64302 18.3442 6.08868 18.7899 6.08868 19.3166Z" fill="#ADADAD"/>
</svg>
