<svg width="362" height="102" viewBox="0 0 362 102" fill="none" xmlns="http://www.w3.org/2000/svg">
<path d="M105.873 39.4195C105.873 39.5439 105.873 39.6684 105.856 39.7845C105.848 39.8592 105.84 39.9338 105.831 40.0085V40.0251C105.732 40.6555 105.5 41.2777 105.11 41.8252C105.035 41.933 104.952 42.0326 104.869 42.1321L91.4304 57.9931C90.6091 58.9553 89.4395 59.4531 88.2615 59.4531C87.3158 59.4531 86.3618 59.1295 85.5821 58.4742C83.84 56.9893 83.6243 54.3762 85.1009 52.6259L92.7742 43.5672H40.38L11.6279 93.5226H33.8266V74.3435C33.8266 72.0539 35.6848 70.1957 37.9743 70.1957H44.9674C52.5578 70.1957 59.7085 67.0186 65.1088 61.2532C68.4934 57.653 70.924 53.2978 72.301 48.5445H80.8619C79.3024 55.4464 75.9842 61.7841 71.1562 66.9273C64.1797 74.3849 54.8722 78.4912 44.9674 78.4912H42.1221V97.6703C42.1221 99.9599 40.2639 101.818 37.9743 101.818H4.45231C2.97571 101.818 1.60696 101.03 0.860364 99.7442C0.122066 98.4667 0.122066 96.8823 0.860364 95.5965L32.8311 40.0417L1.45764 7.19986C0.304567 5.99701 -0.0106614 4.23008 0.644681 2.70371C1.29173 1.17734 2.79321 0.181885 4.45231 0.181885H44.9674C62.3796 0.181885 77.0294 13.0482 80.8868 30.2945H72.3259C68.7422 17.677 57.8254 8.47736 44.9674 8.47736H14.1497L39.7496 35.2718H92.7494L84.4705 25.5329C83.8068 24.7531 83.4833 23.7991 83.4833 22.8534C83.4833 21.6755 83.9727 20.5058 84.9433 19.6928C86.6854 18.208 89.3067 18.4153 90.7916 20.1574L101.526 32.7831L103.865 35.5455L104.886 36.7401H104.894C104.894 36.7401 104.902 36.7566 104.902 36.7649C105.425 37.3788 105.74 38.1171 105.84 38.8803C105.84 38.9798 105.856 39.0877 105.865 39.1955C105.873 39.2702 105.873 39.3448 105.873 39.4195Z" fill="url(#paint0_linear_497_734)"/>
<path d="M166.797 17.8248C171.36 17.8248 175.353 18.4585 178.775 19.7259C182.197 20.93 184.827 22.5777 186.664 24.6689C188.566 26.7602 189.96 29.0099 190.847 31.418C191.734 33.7627 192.178 36.2659 192.178 38.9275C192.178 41.5891 191.734 44.124 190.847 46.5321C189.96 48.8768 188.566 51.0948 186.664 53.1861C184.827 55.2773 182.197 56.9567 178.775 58.2241C175.353 59.4282 171.36 60.0302 166.797 60.0302H149.497V84.7992H140.847V17.8248H166.797ZM165.942 51.8553C172.406 51.8553 176.937 50.6195 179.535 48.148C182.197 45.6766 183.527 42.603 183.527 38.9275C183.527 35.252 182.197 32.1784 179.535 29.707C176.937 27.2355 172.406 25.9997 165.942 25.9997H149.497V51.8553H165.942Z" fill="url(#paint1_linear_497_734)"/>
<path d="M241.127 84.1747L233.998 67.1595H201.773L194.644 84.1747H185.233L213.37 17.8248H222.401L250.538 84.1747H241.127ZM205.195 58.7944V59.2697H230.576V58.7944L218.028 28.4712H217.838L205.195 58.7944Z" fill="url(#paint2_linear_497_734)"/>
<path d="M301.228 31.6081C294.701 27.2988 287.508 25.1442 279.65 25.1442C271.792 25.1442 265.645 27.5523 261.209 32.3685C256.773 37.1848 254.555 43.3952 254.555 50.9998C254.555 58.6043 256.773 64.8147 261.209 69.631C265.645 74.4472 271.792 76.8553 279.65 76.8553C287.508 76.8553 294.701 74.7007 301.228 70.3914H301.704V78.9466C294.859 83.0657 287.35 85.1253 279.175 85.1253C269.479 85.1253 261.494 82.0518 255.221 75.9047C249.01 69.6943 245.905 61.3927 245.905 50.9998C245.905 40.6068 249.01 32.3369 255.221 26.1898C261.494 19.9794 269.479 16.8742 279.175 16.8742C287.35 16.8742 294.859 18.9338 301.704 23.0529V31.6081H301.228Z" fill="url(#paint3_linear_497_734)"/>
<path d="M360.077 75.9998V78.2812C360.077 80.3091 360.616 82.1468 361.693 83.7945V84.1747H352.758C351.871 82.7172 351.427 81.0061 351.427 79.0416V77.5207C351.427 71.6905 350.825 67.6981 349.621 65.5435C349.051 64.4028 348.29 63.1988 347.34 61.9313C345.375 59.5232 341.985 58.3192 337.169 58.3192H317.492V84.1747H308.842V17.8248H335.268C343.886 17.8248 350.35 19.5992 354.659 23.148C358.969 26.6968 361.123 31.3546 361.123 37.1214C361.123 40.9871 360.077 44.4725 357.986 47.5777C355.895 50.6195 352.853 52.8375 348.861 54.2317V54.4218C356.339 56.3863 360.077 63.579 360.077 75.9998ZM334.697 50.1442C340.147 50.1442 344.456 49.0669 347.625 46.9123C350.857 44.7577 352.473 41.7475 352.473 37.8819C352.473 34.0162 351.079 31.0694 348.29 29.0415C345.565 27.0137 340.876 25.9997 334.222 25.9997H317.492V50.1442H334.697Z" fill="url(#paint4_linear_497_734)"/>
<defs>
<linearGradient id="paint0_linear_497_734" x1="0.306641" y1="0.181885" x2="44.3036" y2="216.254" gradientUnits="userSpaceOnUse">
<stop stop-color="#90DBF9"/>
<stop offset="1" stop-color="white"/>
</linearGradient>
<linearGradient id="paint1_linear_497_734" x1="0.306641" y1="0.181885" x2="44.3036" y2="216.254" gradientUnits="userSpaceOnUse">
<stop stop-color="#90DBF9"/>
<stop offset="1" stop-color="white"/>
</linearGradient>
<linearGradient id="paint2_linear_497_734" x1="0.306641" y1="0.181885" x2="44.3036" y2="216.254" gradientUnits="userSpaceOnUse">
<stop stop-color="#90DBF9"/>
<stop offset="1" stop-color="white"/>
</linearGradient>
<linearGradient id="paint3_linear_497_734" x1="0.306641" y1="0.181885" x2="44.3036" y2="216.254" gradientUnits="userSpaceOnUse">
<stop stop-color="#90DBF9"/>
<stop offset="1" stop-color="white"/>
</linearGradient>
<linearGradient id="paint4_linear_497_734" x1="0.306641" y1="0.181885" x2="44.3036" y2="216.254" gradientUnits="userSpaceOnUse">
<stop stop-color="#90DBF9"/>
<stop offset="1" stop-color="white"/>
</linearGradient>
</defs>
</svg>
